<svg width="79" height="32" viewBox="0 0 79 32" fill="none" xmlns="http://www.w3.org/2000/svg">
<path d="M2.20095 23.7121V31.0209H0V14.8667H10.7556L11.0463 16.4032C11.0047 16.4032 11.0047 16.4032 10.9632 16.3617C10.8802 16.3617 10.8386 16.3617 10.8386 16.3202C10.6725 16.071 10.0496 15.8219 9.01143 15.5727C7.93172 15.3235 6.51979 15.199 4.73412 15.199H2.20095V23.2968H9.21907V23.6705H2.20095V23.7121Z" fill="black"/>
<path d="M18.4381 26.4528C18.4381 26.0376 18.4381 25.6223 18.4381 25.207C18.4381 24.7502 18.3966 24.3349 18.3966 23.8781C18.2305 24.2519 17.9398 24.501 17.5245 24.7502C17.1092 24.9578 16.6524 25.1655 16.1541 25.3316C15.6558 25.4977 15.1159 25.6638 14.5761 25.7884C14.0362 25.9545 13.4963 26.1206 13.0395 26.3698C12.5827 26.6189 12.209 26.9096 11.9183 27.2834C11.6276 27.6571 11.4615 28.1555 11.4615 28.7368C11.4615 29.4013 11.6276 29.8581 11.9598 30.1903C12.2921 30.5225 12.7489 30.6886 13.3302 30.6886C13.9116 30.6886 14.6591 30.5225 15.4481 30.1488C16.2787 29.775 17.1923 29.2352 18.1889 28.5292C17.9398 28.7784 17.6076 29.0691 17.1923 29.4013C16.777 29.7335 16.2787 30.0242 15.7388 30.3149C15.199 30.6056 14.6591 30.8547 14.1193 31.0208C13.5379 31.2285 13.0395 31.3115 12.5827 31.3115C12.209 31.3115 11.7937 31.27 11.42 31.1869C11.0462 31.1039 10.6725 30.9793 10.3403 30.7717C10.0081 30.564 9.75889 30.3149 9.55125 29.9827C9.34362 29.6504 9.21903 29.1936 9.21903 28.6538C9.21903 28.197 9.34362 27.7817 9.59278 27.4495C9.84194 27.1173 10.1742 26.8266 10.5894 26.5774C11.0047 26.3283 11.503 26.1206 12.0429 25.9545C12.5827 25.7884 13.1226 25.6223 13.704 25.4977C14.2854 25.3316 14.8252 25.207 15.3651 25.0824C15.9049 24.9578 16.4033 24.7917 16.8185 24.6256C17.2753 24.4595 17.6076 24.2519 17.8982 24.0442C18.1474 23.7951 18.3135 23.5459 18.355 23.2137C18.272 22.7154 18.1889 22.2586 18.0228 21.8018C17.8982 21.345 17.6906 20.9712 17.4414 20.639C17.1923 20.3068 16.8601 20.0576 16.4863 19.85C16.1126 19.6424 15.6142 19.6008 15.0744 19.6008C14.2438 19.6423 13.6209 19.7254 13.2057 19.8915C12.7904 20.0576 12.4997 20.2653 12.2921 20.5144C12.0844 20.7636 12.0429 21.0128 12.0429 21.3034C12.0429 21.5941 12.0429 21.8433 12.0429 22.0925C12.0429 22.3832 11.9598 22.5908 11.7937 22.7569C11.6276 22.923 11.42 22.9645 11.1708 22.9645C10.9217 22.9645 10.6725 22.8815 10.4233 22.6738C10.1742 22.4662 10.0911 22.217 10.0911 21.8848C10.0911 21.428 10.2987 21.0128 10.6725 20.6805C11.0462 20.3483 11.5446 20.0576 12.0844 19.85C12.6243 19.6424 13.2057 19.4762 13.787 19.3932C14.3684 19.3101 14.8252 19.2686 15.199 19.2686C16.3617 19.2686 17.3169 19.4347 18.0228 19.7669C18.7288 20.0992 19.2686 20.556 19.6424 21.0958C20.0161 21.6357 20.2653 22.3001 20.3899 23.0476C20.5145 23.7951 20.556 24.5426 20.556 25.3731V31.0624H18.4796V26.4528H18.4381Z" fill="black"/>
<path d="M25.124 30.1903C25.3316 30.481 25.6638 30.6886 26.1206 30.8132C26.5774 30.9378 27.0342 31.0209 27.5741 31.0209C28.0724 31.0209 28.6123 30.9793 29.1106 30.8547C29.6505 30.7302 30.1073 30.5641 30.5225 30.3564C30.9378 30.1488 31.3116 29.8996 31.5607 29.5674C31.8514 29.2767 31.976 28.903 31.976 28.4877C31.976 27.9894 31.7684 27.5741 31.3116 27.2834C30.8548 26.9927 30.2734 26.7435 29.6089 26.5359C28.9445 26.3283 28.197 26.1206 27.408 25.9545C26.619 25.7884 25.8715 25.5392 25.207 25.2901C24.5426 24.9994 23.9612 24.6672 23.5044 24.2104C23.0476 23.7536 22.84 23.1722 22.84 22.4662C22.84 21.8018 23.0061 21.2619 23.3383 20.8467C23.6705 20.4314 24.1273 20.0992 24.6257 19.85C25.1655 19.6008 25.7054 19.4347 26.3283 19.3517C26.9512 19.2686 27.491 19.2271 28.0309 19.2271C28.2801 19.2271 28.6123 19.2686 29.0276 19.3101C29.4428 19.3517 29.8581 19.4763 30.2318 19.6424C30.6056 19.8085 30.9793 19.9746 31.27 20.2237C31.5607 20.4729 31.7268 20.8051 31.7268 21.1789C31.7268 21.428 31.6438 21.6357 31.4361 21.8018C31.2285 21.9679 31.0209 22.051 30.7717 22.051C30.4395 22.051 30.2318 21.9679 30.0657 21.8433C29.8996 21.7187 29.8166 21.5526 29.7335 21.345C29.6505 21.1789 29.6089 20.9712 29.5674 20.7636C29.5259 20.556 29.4844 20.3899 29.3598 20.2653C29.1521 20.0161 28.903 19.8085 28.6538 19.7254C28.3631 19.6424 28.0309 19.5593 27.6572 19.5593C27.2419 19.5593 26.8266 19.6008 26.4113 19.6839C25.9545 19.7669 25.5808 19.8915 25.207 20.0576C24.8333 20.2237 24.5426 20.4729 24.335 20.7221C24.0858 21.0128 24.0027 21.345 24.0027 21.7187C24.0027 22.0925 24.1273 22.4247 24.418 22.6739C24.6672 22.923 25.0409 23.1307 25.4562 23.3383C25.8715 23.5044 26.3698 23.6705 26.9512 23.7951C27.491 23.9197 28.0724 24.0443 28.6538 24.2104C29.2352 24.3765 29.8166 24.5426 30.3564 24.7087C30.8963 24.8748 31.3946 25.124 31.8514 25.3731C32.2667 25.6223 32.6404 25.9545 32.8896 26.3283C33.1388 26.702 33.3049 27.2003 33.3049 27.7402C33.3049 28.3631 33.1388 28.903 32.8065 29.3598C32.4743 29.8166 32.059 30.1488 31.5192 30.4395C30.9793 30.7302 30.398 30.9378 29.7335 31.0624C29.0691 31.187 28.3631 31.27 27.6572 31.27C27.408 31.27 27.1588 31.27 26.8266 31.2285C26.4944 31.187 26.1622 31.187 25.7884 31.1039C25.4147 31.0624 25.0825 30.9793 24.7087 30.8547C24.335 30.7717 24.0443 30.6471 23.7536 30.481C23.4629 30.3149 23.2553 30.1488 23.0476 29.9411C22.8815 29.7335 22.7985 29.4843 22.7985 29.1521C22.7985 28.903 22.8815 28.7369 23.0891 28.5707C23.2968 28.4046 23.5044 28.3216 23.7536 28.3216C24.0858 28.3216 24.2934 28.4046 24.4595 28.5292C24.6257 28.6538 24.7087 28.8199 24.7918 29.0275C24.8333 29.2352 24.9163 29.4013 24.9163 29.6089C24.9579 29.8996 25.0409 30.0657 25.124 30.1903Z" fill="black"/>
<path d="M34.883 14.8667L36.9593 13.7455V31.0624H34.883V14.8667ZM37.2085 20.639C37.3746 20.3898 37.6238 20.1822 37.8729 20.0161C38.1221 19.85 38.4128 19.6839 38.745 19.6008C39.0772 19.5178 39.3679 19.3932 39.7001 19.3517C40.0324 19.3101 40.3231 19.2686 40.6553 19.2686C41.6104 19.2686 42.3994 19.3932 43.0223 19.6008C43.6452 19.8085 44.1851 20.1407 44.5588 20.5144C44.9741 20.8882 45.2648 21.345 45.4724 21.8433C45.6801 22.3416 45.8462 22.8815 45.9292 23.4213C46.0123 24.0027 46.0538 24.5426 46.0954 25.1655C46.0954 25.7469 46.0954 26.3283 46.0954 26.8681V31.0624H44.019V26.6605C44.019 26.2452 44.019 25.8299 44.019 25.3316C44.019 24.8333 43.9775 24.3349 43.9359 23.7951C43.8944 23.2552 43.7698 22.7569 43.6452 22.2586C43.5207 21.7602 43.313 21.345 43.0639 20.9297C42.8147 20.556 42.441 20.2237 42.0257 20.0161C41.6104 19.7669 41.0706 19.6424 40.4061 19.6424C39.8663 19.6424 39.451 19.6839 39.0772 19.7669C38.7035 19.85 38.4128 19.933 38.1636 20.0161C37.9145 20.0992 37.7068 20.2237 37.5823 20.3483C37.4161 20.4729 37.2916 20.556 37.2085 20.639Z" fill="black"/>
<path d="M50.8013 18.8948V31.0208H48.7249V20.0161L50.8013 18.8948Z" fill="black"/>
<path d="M48.1557 15.3229C47.8284 15.495 47.0198 15.5714 47.0198 15.5714V15.8774C47.0198 15.8774 47.8284 15.9539 48.1557 16.1259C48.4638 16.298 48.7333 16.5275 48.9259 16.8334C49.1377 17.1393 49.2724 17.4835 49.3687 17.885C49.465 18.2865 49.5035 18.6326 49.5035 18.6326H49.773C49.773 18.6326 49.868 18.0837 49.9078 17.885C50.0041 17.4835 50.1581 17.1393 50.3506 16.8334C50.5432 16.5275 50.7934 16.298 51.1208 16.1259C51.4481 15.9539 52.2567 15.8774 52.2567 15.8774V15.5714C52.2567 15.5714 51.4481 15.495 51.1208 15.3229C50.8127 15.1508 50.5432 14.9214 50.3506 14.6154C50.1388 14.3095 50.0041 13.9653 49.9078 13.5638C49.8636 13.3271 49.773 12.7241 49.773 12.7241H49.5035C49.5035 12.7241 49.414 13.4109 49.3687 13.5638C49.2724 13.9653 49.1184 14.3095 48.9259 14.6154C48.7333 14.9214 48.4831 15.1508 48.1557 15.3229Z" fill="black"/>
<path d="M53.299 25.2901C53.299 24.5011 53.4236 23.7536 53.6728 23.0061C53.9219 22.2586 54.3372 21.6357 54.877 21.0543C55.4169 20.4729 56.0813 20.0576 56.8704 19.7254C57.6594 19.3932 58.6145 19.2271 59.6942 19.2271C60.7739 19.2271 61.7291 19.3932 62.5181 19.7254C63.3071 20.0576 63.9715 20.5144 64.5114 21.0958C65.0512 21.6772 65.425 22.3001 65.6742 23.0476C65.9233 23.7536 66.0479 24.5426 66.0479 25.2901C66.0479 26.0791 65.9233 26.8266 65.6742 27.5741C65.425 28.3216 65.0097 28.9445 64.4699 29.5259C63.93 30.1073 63.2656 30.5225 62.4766 30.8547C61.6875 31.187 60.7324 31.3531 59.6942 31.3531C58.656 31.3531 57.6594 31.187 56.8704 30.8547C56.0813 30.5225 55.4169 30.0657 54.877 29.4843C54.3372 28.903 53.9634 28.28 53.6728 27.5326C53.4236 26.8266 53.299 26.0791 53.299 25.2901ZM58.6145 19.7254C57.9085 19.7254 57.3272 19.8915 56.8704 20.2237C56.4136 20.556 56.0398 20.9712 55.7906 21.4696C55.5415 21.9679 55.4169 22.5908 55.3339 23.2552C55.2923 23.9197 55.3339 24.6256 55.4584 25.3316C55.583 26.0376 55.7906 26.702 56.1229 27.408C56.4136 28.0724 56.7873 28.6538 57.2441 29.1937C57.7009 29.692 58.1992 30.1488 58.7806 30.4395C59.362 30.7717 59.9849 30.9378 60.6909 30.9378C61.3968 30.9378 61.9367 30.7717 62.3935 30.4395C62.8503 30.1073 63.1825 29.692 63.4317 29.1937C63.6808 28.6953 63.8054 28.0724 63.8885 27.408C63.93 26.7435 63.8885 26.0376 63.7639 25.3316C63.6393 24.6256 63.3902 23.9612 63.0995 23.2552C62.8088 22.5908 62.435 22.0094 61.9782 21.4696C61.5214 20.9712 61.0231 20.5144 60.4417 20.2237C59.8603 19.9331 59.3205 19.7254 58.6145 19.7254Z" fill="black"/>
<path d="M67.8292 20.0161L69.9055 18.8948V31.0208H67.8292V20.0161ZM70.1132 20.639C70.2793 20.3898 70.5284 20.1822 70.7776 20.0161C71.0268 19.85 71.3175 19.6839 71.6497 19.6008C71.9819 19.5178 72.2726 19.3932 72.6048 19.3516C72.937 19.3101 73.2277 19.2686 73.5599 19.2686C74.5151 19.2686 75.3041 19.3932 75.927 19.6008C76.5499 19.8084 77.0898 20.1407 77.4635 20.5144C77.8788 20.8882 78.1695 21.345 78.3771 21.8433C78.5847 22.3416 78.7509 22.8815 78.8339 23.4213C78.917 24.0027 78.9585 24.5426 79 25.1655C79 25.7469 79 26.3282 79 26.8681V31.0624H76.9236V26.6605C76.9236 26.2452 76.9236 25.8299 76.9236 25.3316C76.9236 24.8333 76.8821 24.3349 76.8406 23.7951C76.7991 23.2552 76.6745 22.7569 76.5499 22.2586C76.4253 21.7602 76.2177 21.345 75.9685 20.9297C75.7194 20.5559 75.3456 20.2237 74.9303 20.0161C74.5151 19.7669 73.9752 19.6423 73.3108 19.6423C72.7709 19.6423 72.3556 19.6839 71.9819 19.7669C71.6082 19.85 71.3175 19.933 71.0683 20.0161C70.8191 20.0991 70.6115 20.2237 70.4869 20.3483C70.3208 20.4729 70.1962 20.5559 70.1132 20.639Z" fill="black"/>
<path d="M22.6687 0C24.3298 0 25.7833 0.249164 27.0291 0.705965C28.2749 1.20429 29.3131 1.8272 30.1437 2.61622C30.9742 3.40524 31.5971 4.27732 32.0124 5.3155C32.4277 6.31216 32.6353 7.35034 32.6353 8.43005C32.6353 9.46823 32.4277 10.5064 32.0124 11.5031C31.5971 12.4997 30.9742 13.4133 30.1437 14.2023C29.3131 14.9914 28.2749 15.6143 27.0291 16.1126C25.7833 16.6109 24.3298 16.8601 22.6687 16.8601C21.0076 16.8601 19.5542 16.6109 18.3084 16.1126C17.0625 15.6143 16.0244 14.9914 15.1938 14.2023C14.3633 13.4133 13.7404 12.4997 13.3251 11.5031C12.9098 10.5064 12.7022 9.46823 12.7022 8.43005C12.7022 7.35034 12.9098 6.35368 13.3251 5.3155C13.7404 4.31884 14.3633 3.40524 15.1938 2.61622C16.0244 1.8272 17.0625 1.20429 18.3084 0.705965C19.5542 0.249164 21.0076 0 22.6687 0ZM23.9146 16.3202C25.1604 16.3202 26.2401 16.1126 27.1122 15.6558C27.9842 15.199 28.6902 14.6176 29.2301 13.8701C29.7699 13.1226 30.1021 12.2921 30.2682 11.337C30.4343 10.3818 30.4343 9.42671 30.3098 8.43005C30.1437 7.43339 29.853 6.47826 29.3546 5.52314C28.8563 4.56801 28.2749 3.73746 27.5274 2.98997C26.7799 2.24248 25.9079 1.66109 24.8697 1.20429C23.8315 0.747492 22.7103 0.539855 21.4644 0.539855C20.1771 0.539855 19.0974 0.747492 18.2253 1.20429C17.3532 1.66109 16.6473 2.24248 16.1489 2.98997C15.6091 3.73746 15.2769 4.56801 15.1108 5.52314C14.9446 6.47826 14.9447 7.43339 15.0692 8.43005C15.2353 9.42671 15.526 10.3818 15.9828 11.337C16.4396 12.2921 17.0625 13.1226 17.81 13.8701C18.5575 14.6176 19.4711 15.199 20.4678 15.6558C21.506 16.0711 22.6687 16.3202 23.9146 16.3202Z" fill="black"/>
<path d="M34.883 3.90352L36.9593 2.78228V9.67582C37.0009 10.3818 37.1255 11.0877 37.3331 11.7107C37.5407 12.3336 37.8314 12.9149 38.2467 13.3717C38.6204 13.8286 39.0772 14.2438 39.6586 14.493C40.1985 14.7837 40.8214 14.9083 41.5273 14.9083C42.3994 14.9083 43.0639 14.6176 43.6037 14.0777C44.1436 13.5379 44.4758 12.8319 44.6834 12.0013C44.8911 11.1708 44.9326 10.2572 44.8495 9.30207C44.7665 8.34694 44.5173 7.43334 44.1436 6.60279C43.7698 5.77225 43.2715 5.06628 42.6486 4.52643C42.0257 3.98657 41.2782 3.69588 40.4476 3.69588C40.1569 3.69588 39.8247 3.73741 39.534 3.86199C39.2433 3.98657 38.9527 4.11115 38.662 4.27726C38.3713 4.44337 38.1221 4.65101 37.9145 4.85864C37.6653 5.06628 37.4992 5.31545 37.3746 5.52308C37.7068 4.81712 38.2467 4.23573 38.9527 3.77893C39.7001 3.32213 40.4892 3.1145 41.3197 3.1145C42.3579 3.1145 43.23 3.28061 43.9775 3.61282C44.725 3.94504 45.3063 4.40184 45.8047 4.98323C46.2615 5.56461 46.6352 6.18752 46.8428 6.93501C47.0505 7.6825 47.1751 8.38847 47.1751 9.17749C47.1751 9.96651 47.0505 10.6725 46.8428 11.42C46.6352 12.1259 46.2615 12.7904 45.8047 13.3717C45.3479 13.9531 44.725 14.4099 43.9775 14.7422C43.23 15.0744 42.3579 15.282 41.3612 15.282C40.2815 15.282 39.3679 15.1159 38.662 14.8252C37.956 14.5345 37.4161 14.1192 37.0009 13.6209V20.7221H34.9245V3.90352H34.883Z" fill="black"/>
<path d="M52.0254 7.10112C52.0254 7.89014 52.15 8.67916 52.3991 9.50971C52.6483 10.3403 53.022 11.0462 53.4788 11.7522C53.9356 12.4166 54.517 12.9565 55.1815 13.3717C55.8459 13.787 56.5934 13.9947 57.3824 13.9947C58.1299 13.9947 58.7943 13.8286 59.3757 13.5379C59.9571 13.2056 60.4554 12.8319 60.8707 12.4166C61.286 12.0013 61.6182 11.5445 61.8258 11.1293C62.075 10.714 62.1996 10.3818 62.1996 10.1741C62.1581 10.714 61.9504 11.2954 61.6182 11.8352C61.286 12.3751 60.8707 12.8734 60.3309 13.3302C59.791 13.787 59.2096 14.1192 58.5037 14.4099C57.7977 14.6591 57.0502 14.8252 56.2612 14.8252C55.1815 14.8252 54.2263 14.6591 53.4373 14.3269C52.6483 13.9947 51.9839 13.5379 51.444 12.9565C50.9042 12.3751 50.5304 11.7522 50.2397 11.0047C49.9905 10.2987 49.866 9.50971 49.866 8.76222C49.866 7.72403 50.0321 6.85196 50.3643 6.10446C50.6965 5.35697 51.1533 4.73406 51.6932 4.23573C52.233 3.73741 52.8559 3.36366 53.5619 3.15602C54.2679 2.90686 54.9738 2.78228 55.6798 2.78228C56.2196 2.78228 56.7595 2.86533 57.2578 3.03144C57.7977 3.19755 58.2545 3.44672 58.7113 3.77893C59.1681 4.11115 59.5418 4.4849 59.8741 4.90017C60.2063 5.35697 60.4554 5.81377 60.6631 6.35363C60.7461 6.60279 60.7046 6.81043 60.58 6.97654C60.4554 7.14265 60.2478 7.2257 59.9571 7.2257H52.0254V7.10112ZM55.2645 3.07297C54.7247 3.07297 54.2679 3.15602 53.8526 3.36366C53.4373 3.5713 53.1051 3.82046 52.8559 4.15268C52.6068 4.4849 52.3991 4.90017 52.233 5.31545C52.1084 5.77225 52.0254 6.22905 51.9839 6.72737H58.7943C58.7113 6.43668 58.5867 6.10447 58.4206 5.68919C58.2545 5.27392 58.0053 4.85864 57.7146 4.4849C57.4239 4.11115 57.0917 3.77893 56.6764 3.48824C56.2612 3.19755 55.7628 3.07297 55.2645 3.07297Z" fill="black"/>
<path d="M63.3272 3.77889L65.4036 2.65765V14.7836H63.3272V3.77889ZM65.6528 4.4018C65.8189 4.15264 66.068 3.945 66.3172 3.77889C66.5664 3.61278 66.857 3.44667 67.1893 3.36362C67.5215 3.23903 67.8122 3.15598 68.1444 3.11445C68.4766 3.07292 68.7673 3.0314 69.0995 3.0314C70.0547 3.0314 70.8437 3.15598 71.4666 3.36362C72.0895 3.57125 72.6293 3.90347 73.0031 4.27722C73.4184 4.65096 73.7091 5.10776 73.9167 5.60609C74.1243 6.10442 74.2904 6.64428 74.3735 7.18413C74.4566 7.76551 74.4981 8.30537 74.5396 8.92828C74.5396 9.50966 74.5396 10.091 74.5396 10.6309V14.8252H72.4632V10.4233C72.4632 10.008 72.4632 9.59272 72.4632 9.05286C72.4632 8.55453 72.4217 8.05621 72.3802 7.51635C72.3387 6.97649 72.2141 6.47817 72.0895 5.97984C71.9649 5.48151 71.7573 5.06624 71.5081 4.65096C71.2589 4.27722 70.8852 3.945 70.4699 3.69583C70.0547 3.44667 69.5148 3.32209 68.8504 3.32209C68.3105 3.32209 67.8952 3.36362 67.5215 3.44667C67.1477 3.52973 66.8571 3.61278 66.6079 3.69583C66.3587 3.77889 66.1511 3.90347 66.0265 4.02805C65.8604 4.19416 65.7358 4.31874 65.6528 4.4018Z" fill="black"/>
</svg>
