<svg width="79" height="32" viewBox="0 0 79 32" fill="none" xmlns="http://www.w3.org/2000/svg">
<path d="M2.20095 23.712V31.0208H0V14.8667H10.7556L11.0463 16.4032C11.0047 16.4032 11.0047 16.4032 10.9632 16.3617C10.8802 16.3617 10.8386 16.3617 10.8386 16.3201C10.6725 16.071 10.0496 15.8218 9.01143 15.5726C7.93172 15.3235 6.51979 15.1989 4.73412 15.1989H2.20095V23.2967H9.21907V23.6705H2.20095V23.712Z" fill="black"/>
<path d="M18.4381 26.4529C18.4381 26.0376 18.4381 25.6223 18.4381 25.2071C18.4381 24.7503 18.3966 24.335 18.3966 23.8782C18.2305 24.2519 17.9398 24.5011 17.5245 24.7503C17.1093 24.9579 16.6525 25.1655 16.1541 25.3317C15.6558 25.4978 15.1159 25.6639 14.5761 25.7885C14.0362 25.9546 13.4964 26.1207 13.0396 26.3698C12.5828 26.619 12.209 26.9097 11.9183 27.2834C11.6277 27.6572 11.4615 28.1555 11.4615 28.7369C11.4615 29.4013 11.6276 29.8581 11.9599 30.1904C12.2921 30.5226 12.7489 30.6887 13.3303 30.6887C13.9117 30.6887 14.6591 30.5226 15.4482 30.1488C16.2787 29.7751 17.1923 29.2352 18.189 28.5293C17.9398 28.7784 17.6076 29.0691 17.1923 29.4013C16.777 29.7336 16.2787 30.0242 15.7389 30.3149C15.199 30.6056 14.6591 30.8548 14.1193 31.0209C13.5379 31.2285 13.0396 31.3116 12.5828 31.3116C12.209 31.3116 11.7938 31.2701 11.42 31.187C11.0463 31.104 10.6725 30.9794 10.3403 30.7717C10.0081 30.5641 9.75892 30.3149 9.55128 29.9827C9.34365 29.6505 9.21906 29.1937 9.21906 28.6538C9.21906 28.197 9.34365 27.7818 9.59281 27.4496C9.84197 27.1173 10.1742 26.8266 10.5895 26.5775C11.0047 26.3283 11.5031 26.1207 12.0429 25.9546C12.5828 25.7885 13.1226 25.6223 13.704 25.4978C14.2854 25.3317 14.8253 25.2071 15.3651 25.0825C15.905 24.9579 16.4033 24.7918 16.8186 24.6257C17.2754 24.4596 17.6076 24.2519 17.8983 24.0443C18.1474 23.7951 18.3136 23.546 18.3551 23.2138C18.272 22.7154 18.189 22.2586 18.0229 21.8018C17.8983 21.345 17.6906 20.9713 17.4415 20.6391C17.1923 20.3068 16.8601 20.0577 16.4863 19.85C16.1126 19.6424 15.6143 19.6009 15.0744 19.6009C14.2439 19.6424 13.621 19.7255 13.2057 19.8916C12.7904 20.0577 12.4997 20.2653 12.2921 20.5145C12.0845 20.7636 12.0429 21.0128 12.0429 21.3035C12.0429 21.5942 12.0429 21.8434 12.0429 22.0925C12.0429 22.3832 11.9599 22.5909 11.7938 22.757C11.6276 22.9231 11.42 22.9646 11.1708 22.9646C10.9217 22.9646 10.6725 22.8815 10.4234 22.6739C10.1742 22.4663 10.0911 22.2171 10.0911 21.8849C10.0911 21.4281 10.2988 21.0128 10.6725 20.6806C11.0463 20.3484 11.5446 20.0577 12.0845 19.85C12.6243 19.6424 13.2057 19.4763 13.7871 19.3932C14.3685 19.3102 14.8253 19.2687 15.199 19.2687C16.3618 19.2687 17.3169 19.4348 18.0229 19.767C18.7288 20.0992 19.2687 20.556 19.6424 21.0959C20.0162 21.6357 20.2653 22.3002 20.3899 23.0477C20.5145 23.7951 20.556 24.5426 20.556 25.3732V31.0624H18.4797V26.4529H18.4381Z" fill="black"/>
<path d="M25.124 30.1903C25.3317 30.481 25.6639 30.6886 26.1207 30.8132C26.5775 30.9378 27.0343 31.0208 27.5742 31.0208C28.0725 31.0208 28.6123 30.9793 29.1107 30.8547C29.6505 30.7301 30.1073 30.564 30.5226 30.3564C30.9379 30.1488 31.3116 29.8996 31.5608 29.5674C31.8515 29.2767 31.9761 28.9029 31.9761 28.4877C31.9761 27.9893 31.7684 27.5741 31.3116 27.2834C30.8548 26.9927 30.2734 26.7435 29.609 26.5359C28.9446 26.3282 28.1971 26.1206 27.408 25.9545C26.619 25.7884 25.8715 25.5392 25.2071 25.2901C24.5427 24.9994 23.9613 24.6671 23.5045 24.2103C23.0477 23.7535 22.84 23.1722 22.84 22.4662C22.84 21.8018 23.0062 21.2619 23.3384 20.8466C23.6706 20.4314 24.1274 20.0991 24.6257 19.85C25.1656 19.6008 25.7054 19.4347 26.3283 19.3516C26.9512 19.2686 27.4911 19.2271 28.031 19.2271C28.2801 19.2271 28.6123 19.2686 29.0276 19.3101C29.4429 19.3516 29.8582 19.4762 30.2319 19.6423C30.6057 19.8084 30.9794 19.9746 31.2701 20.2237C31.5608 20.4729 31.7269 20.8051 31.7269 21.1788C31.7269 21.428 31.6438 21.6356 31.4362 21.8018C31.2286 21.9679 31.0209 22.0509 30.7718 22.0509C30.4395 22.0509 30.2319 21.9679 30.0658 21.8433C29.8997 21.7187 29.8166 21.5526 29.7336 21.345C29.6505 21.1788 29.609 20.9712 29.5675 20.7636C29.5259 20.5559 29.4844 20.3898 29.3598 20.2652C29.1522 20.0161 28.903 19.8084 28.6539 19.7254C28.3632 19.6423 28.031 19.5593 27.6572 19.5593C27.2419 19.5593 26.8267 19.6008 26.4114 19.6839C25.9546 19.7669 25.5808 19.8915 25.2071 20.0576C24.8334 20.2237 24.5427 20.4729 24.335 20.722C24.0859 21.0127 24.0028 21.345 24.0028 21.7187C24.0028 22.0924 24.1274 22.4247 24.4181 22.6738C24.6672 22.923 25.041 23.1306 25.4563 23.3383C25.8715 23.5044 26.3699 23.6705 26.9512 23.7951C27.4911 23.9197 28.0725 24.0442 28.6539 24.2103C29.2353 24.3765 29.8166 24.5426 30.3565 24.7087C30.8963 24.8748 31.3947 25.1239 31.8515 25.3731C32.2667 25.6223 32.6405 25.9545 32.8897 26.3282C33.1388 26.702 33.3049 27.2003 33.3049 27.7402C33.3049 28.3631 33.1388 28.9029 32.8066 29.3597C32.4744 29.8165 32.0591 30.1488 31.5193 30.4394C30.9794 30.7301 30.398 30.9378 29.7336 31.0624C29.0691 31.1869 28.3632 31.27 27.6572 31.27C27.408 31.27 27.1589 31.27 26.8267 31.2285C26.4944 31.1869 26.1622 31.1869 25.7885 31.1039C25.4147 31.0624 25.0825 30.9793 24.7088 30.8547C24.335 30.7717 24.0443 30.6471 23.7536 30.481C23.463 30.3149 23.2553 30.1488 23.0477 29.9411C22.8816 29.7335 22.7985 29.4843 22.7985 29.1521C22.7985 28.9029 22.8816 28.7368 23.0892 28.5707C23.2968 28.4046 23.5045 28.3215 23.7536 28.3215C24.0859 28.3215 24.2935 28.4046 24.4596 28.5292C24.6257 28.6538 24.7088 28.8199 24.7918 29.0275C24.8334 29.2351 24.9164 29.4013 24.9164 29.6089C24.9579 29.8996 25.041 30.0657 25.124 30.1903Z" fill="black"/>
<path d="M34.883 14.8667L36.9593 13.7455V31.0624H34.883V14.8667ZM37.2085 20.639C37.3746 20.3898 37.6238 20.1822 37.8729 20.0161C38.1221 19.85 38.4128 19.6839 38.745 19.6008C39.0772 19.5178 39.3679 19.3932 39.7001 19.3517C40.0324 19.3101 40.3231 19.2686 40.6553 19.2686C41.6104 19.2686 42.3994 19.3932 43.0223 19.6008C43.6452 19.8085 44.1851 20.1407 44.5588 20.5144C44.9741 20.8882 45.2648 21.345 45.4724 21.8433C45.6801 22.3416 45.8462 22.8815 45.9292 23.4213C46.0123 24.0027 46.0538 24.5426 46.0954 25.1655C46.0954 25.7469 46.0954 26.3283 46.0954 26.8681V31.0624H44.019V26.6605C44.019 26.2452 44.019 25.8299 44.019 25.3316C44.019 24.8333 43.9775 24.3349 43.9359 23.7951C43.8944 23.2552 43.7698 22.7569 43.6452 22.2586C43.5207 21.7602 43.313 21.345 43.0639 20.9297C42.8147 20.556 42.441 20.2237 42.0257 20.0161C41.6104 19.7669 41.0706 19.6424 40.4061 19.6424C39.8663 19.6424 39.451 19.6839 39.0772 19.7669C38.7035 19.85 38.4128 19.933 38.1636 20.0161C37.9145 20.0992 37.7068 20.2237 37.5823 20.3483C37.4161 20.4729 37.2916 20.556 37.2085 20.639Z" fill="black"/>
<path d="M50.8013 18.8949V31.0209H48.725V20.0162L50.8013 18.8949Z" fill="black"/>
<path d="M48.1558 15.3229C47.8285 15.495 47.0199 15.5715 47.0199 15.5715V15.8774C47.0199 15.8774 47.8285 15.9539 48.1558 16.126C48.4639 16.2981 48.7334 16.5275 48.9259 16.8334C49.1377 17.1394 49.2725 17.4835 49.3688 17.8851C49.465 18.2866 49.5035 18.6327 49.5035 18.6327H49.7731C49.7731 18.6327 49.8681 18.0838 49.9079 17.8851C50.0041 17.4835 50.1581 17.1394 50.3507 16.8334C50.5432 16.5275 50.7935 16.2981 51.1208 16.126C51.4481 15.9539 52.2568 15.8774 52.2568 15.8774V15.5715C52.2568 15.5715 51.4481 15.495 51.1208 15.3229C50.8128 15.1509 50.5432 14.9214 50.3507 14.6155C50.1389 14.3096 50.0041 13.9654 49.9079 13.5639C49.8637 13.3272 49.7731 12.7242 49.7731 12.7242H49.5035C49.5035 12.7242 49.414 13.411 49.3688 13.5639C49.2725 13.9654 49.1185 14.3096 48.9259 14.6155C48.7334 14.9214 48.4831 15.1509 48.1558 15.3229Z" fill="black"/>
<path d="M53.299 25.2901C53.299 24.501 53.4236 23.7535 53.6727 23.006C53.9219 22.2586 54.3372 21.6356 54.877 21.0543C55.4169 20.4729 56.0813 20.0576 56.8703 19.7254C57.6593 19.3932 58.6145 19.2271 59.6942 19.2271C60.7739 19.2271 61.729 19.3932 62.518 19.7254C63.3071 20.0576 63.9715 20.5144 64.5114 21.0958C65.0512 21.6772 65.425 22.3001 65.6741 23.0476C65.9233 23.7535 66.0479 24.5426 66.0479 25.2901C66.0479 26.0791 65.9233 26.8266 65.6741 27.5741C65.425 28.3215 65.0097 28.9445 64.4698 29.5258C63.93 30.1072 63.2655 30.5225 62.4765 30.8547C61.6875 31.1869 60.7324 31.353 59.6942 31.353C58.656 31.353 57.6593 31.1869 56.8703 30.8547C56.0813 30.5225 55.4169 30.0657 54.877 29.4843C54.3372 28.9029 53.9634 28.28 53.6727 27.5325C53.4236 26.8266 53.299 26.0791 53.299 25.2901ZM58.6145 19.7254C57.9085 19.7254 57.3271 19.8915 56.8703 20.2237C56.4135 20.5559 56.0398 20.9712 55.7906 21.4695C55.5415 21.9679 55.4169 22.5908 55.3338 23.2552C55.2923 23.9196 55.3338 24.6256 55.4584 25.3316C55.583 26.0375 55.7906 26.702 56.1228 27.4079C56.4135 28.0724 56.7873 28.6538 57.2441 29.1936C57.7009 29.6919 58.1992 30.1487 58.7806 30.4394C59.362 30.7717 59.9849 30.9378 60.6908 30.9378C61.3968 30.9378 61.9367 30.7717 62.3935 30.4394C62.8503 30.1072 63.1825 29.6919 63.4317 29.1936C63.6808 28.6953 63.8054 28.0724 63.8884 27.4079C63.93 26.7435 63.8885 26.0375 63.7639 25.3316C63.6393 24.6256 63.3901 23.9612 63.0994 23.2552C62.8087 22.5908 62.435 22.0094 61.9782 21.4695C61.5214 20.9712 61.0231 20.5144 60.4417 20.2237C59.8603 19.933 59.3204 19.7254 58.6145 19.7254Z" fill="black"/>
<path d="M67.8292 20.0161L69.9055 18.8948V31.0208H67.8292V20.0161ZM70.1132 20.639C70.2793 20.3898 70.5284 20.1822 70.7776 20.0161C71.0268 19.85 71.3175 19.6839 71.6497 19.6008C71.9819 19.5178 72.2726 19.3932 72.6048 19.3516C72.937 19.3101 73.2277 19.2686 73.5599 19.2686C74.5151 19.2686 75.3041 19.3932 75.927 19.6008C76.5499 19.8084 77.0898 20.1407 77.4635 20.5144C77.8788 20.8882 78.1695 21.345 78.3771 21.8433C78.5847 22.3416 78.7509 22.8815 78.8339 23.4213C78.917 24.0027 78.9585 24.5426 79 25.1655C79 25.7469 79 26.3282 79 26.8681V31.0624H76.9236V26.6605C76.9236 26.2452 76.9236 25.8299 76.9236 25.3316C76.9236 24.8333 76.8821 24.3349 76.8406 23.7951C76.7991 23.2552 76.6745 22.7569 76.5499 22.2586C76.4253 21.7602 76.2177 21.345 75.9685 20.9297C75.7194 20.5559 75.3456 20.2237 74.9303 20.0161C74.5151 19.7669 73.9752 19.6423 73.3108 19.6423C72.7709 19.6423 72.3556 19.6839 71.9819 19.7669C71.6082 19.85 71.3175 19.933 71.0683 20.0161C70.8191 20.0991 70.6115 20.2237 70.4869 20.3483C70.3208 20.4729 70.1962 20.5559 70.1132 20.639Z" fill="black"/>
<path d="M22.6688 0C24.3299 0 25.7833 0.249164 27.0291 0.705965C28.275 1.20429 29.3131 1.8272 30.1437 2.61622C30.9742 3.40524 31.5971 4.27732 32.0124 5.3155C32.4277 6.31216 32.6353 7.35034 32.6353 8.43005C32.6353 9.46823 32.4277 10.5064 32.0124 11.5031C31.5971 12.4997 30.9742 13.4133 30.1437 14.2023C29.3131 14.9914 28.275 15.6143 27.0291 16.1126C25.7833 16.6109 24.3299 16.8601 22.6688 16.8601C21.0077 16.8601 19.5542 16.6109 18.3084 16.1126C17.0626 15.6143 16.0244 14.9914 15.1938 14.2023C14.3633 13.4133 13.7404 12.4997 13.3251 11.5031C12.9098 10.5064 12.7022 9.46823 12.7022 8.43005C12.7022 7.35034 12.9098 6.35368 13.3251 5.3155C13.7404 4.31884 14.3633 3.40524 15.1938 2.61622C16.0244 1.8272 17.0626 1.20429 18.3084 0.705965C19.5542 0.249164 21.0077 0 22.6688 0ZM23.9146 16.3202C25.1604 16.3202 26.2401 16.1126 27.1122 15.6558C27.9843 15.199 28.6902 14.6176 29.2301 13.8701C29.7699 13.1226 30.1022 12.2921 30.2683 11.337C30.4344 10.3818 30.4344 9.42671 30.3098 8.43005C30.1437 7.43339 29.853 6.47826 29.3547 5.52314C28.8563 4.56801 28.275 3.73746 27.5275 2.98997C26.78 2.24248 25.9079 1.66109 24.8697 1.20429C23.8315 0.747492 22.7103 0.539855 21.4645 0.539855C20.1771 0.539855 19.0974 0.747492 18.2253 1.20429C17.3533 1.66109 16.6473 2.24248 16.149 2.98997C15.6091 3.73746 15.2769 4.56801 15.1108 5.52314C14.9447 6.47826 14.9447 7.43339 15.0693 8.43005C15.2354 9.42671 15.5261 10.3818 15.9829 11.337C16.4397 12.2921 17.0626 13.1226 17.8101 13.8701C18.5576 14.6176 19.4712 15.199 20.4678 15.6558C21.506 16.0711 22.6688 16.3202 23.9146 16.3202Z" fill="black"/>
<path d="M34.883 3.90352L36.9593 2.78228V9.67582C37.0009 10.3818 37.1255 11.0877 37.3331 11.7107C37.5407 12.3336 37.8314 12.9149 38.2467 13.3717C38.6204 13.8286 39.0772 14.2438 39.6586 14.493C40.1985 14.7837 40.8214 14.9083 41.5273 14.9083C42.3994 14.9083 43.0639 14.6176 43.6037 14.0777C44.1436 13.5379 44.4758 12.8319 44.6834 12.0013C44.8911 11.1708 44.9326 10.2572 44.8495 9.30207C44.7665 8.34694 44.5173 7.43334 44.1436 6.60279C43.7698 5.77225 43.2715 5.06628 42.6486 4.52643C42.0257 3.98657 41.2782 3.69588 40.4476 3.69588C40.1569 3.69588 39.8247 3.73741 39.534 3.86199C39.2433 3.98657 38.9527 4.11115 38.662 4.27726C38.3713 4.44337 38.1221 4.65101 37.9145 4.85864C37.6653 5.06628 37.4992 5.31545 37.3746 5.52308C37.7068 4.81712 38.2467 4.23573 38.9527 3.77893C39.7001 3.32213 40.4892 3.1145 41.3197 3.1145C42.3579 3.1145 43.23 3.28061 43.9775 3.61282C44.725 3.94504 45.3063 4.40184 45.8047 4.98323C46.2615 5.56461 46.6352 6.18752 46.8428 6.93501C47.0505 7.6825 47.1751 8.38847 47.1751 9.17749C47.1751 9.96651 47.0505 10.6725 46.8428 11.42C46.6352 12.1259 46.2615 12.7904 45.8047 13.3717C45.3479 13.9531 44.725 14.4099 43.9775 14.7422C43.23 15.0744 42.3579 15.282 41.3612 15.282C40.2815 15.282 39.3679 15.1159 38.662 14.8252C37.956 14.5345 37.4161 14.1192 37.0009 13.6209V20.7221H34.9245V3.90352H34.883Z" fill="black"/>
<path d="M52.0254 7.10112C52.0254 7.89014 52.15 8.67916 52.3992 9.50971C52.6483 10.3403 53.0221 11.0462 53.4789 11.7522C53.9357 12.4166 54.5171 12.9565 55.1815 13.3717C55.8459 13.787 56.5934 13.9947 57.3824 13.9947C58.1299 13.9947 58.7944 13.8286 59.3758 13.5379C59.9571 13.2056 60.4555 12.8319 60.8707 12.4166C61.286 12.0013 61.6182 11.5445 61.8259 11.1293C62.075 10.714 62.1996 10.3818 62.1996 10.1741C62.1581 10.714 61.9505 11.2954 61.6182 11.8352C61.286 12.3751 60.8707 12.8734 60.3309 13.3302C59.791 13.787 59.2097 14.1192 58.5037 14.4099C57.7977 14.6591 57.0502 14.8252 56.2612 14.8252C55.1815 14.8252 54.2264 14.6591 53.4374 14.3269C52.6483 13.9947 51.9839 13.5379 51.444 12.9565C50.9042 12.3751 50.5304 11.7522 50.2397 11.0047C49.9906 10.2987 49.866 9.50971 49.866 8.76222C49.866 7.72403 50.0321 6.85196 50.3643 6.10446C50.6965 5.35697 51.1533 4.73406 51.6932 4.23573C52.2331 3.73741 52.856 3.36366 53.5619 3.15602C54.2679 2.90686 54.9739 2.78228 55.6798 2.78228C56.2197 2.78228 56.7595 2.86533 57.2579 3.03144C57.7977 3.19755 58.2545 3.44672 58.7113 3.77893C59.1681 4.11115 59.5419 4.4849 59.8741 4.90017C60.2063 5.35697 60.4555 5.81377 60.6631 6.35363C60.7462 6.60279 60.7046 6.81043 60.5801 6.97654C60.4555 7.14265 60.2478 7.2257 59.9571 7.2257H52.0254V7.10112ZM55.2646 3.07297C54.7247 3.07297 54.2679 3.15602 53.8526 3.36366C53.4374 3.5713 53.1051 3.82046 52.856 4.15268C52.6068 4.4849 52.3992 4.90017 52.2331 5.31545C52.1085 5.77225 52.0254 6.22905 51.9839 6.72737H58.7944C58.7113 6.43668 58.5867 6.10447 58.4206 5.68919C58.2545 5.27392 58.0054 4.85864 57.7147 4.4849C57.424 4.11115 57.0918 3.77893 56.6765 3.48824C56.2612 3.19755 55.7629 3.07297 55.2646 3.07297Z" fill="black"/>
<path d="M63.3272 3.77895L65.4036 2.65771V14.7837H63.3272V3.77895ZM65.6528 4.40186C65.8189 4.1527 66.068 3.94506 66.3172 3.77895C66.5664 3.61284 66.857 3.44673 67.1893 3.36368C67.5215 3.2391 67.8122 3.15604 68.1444 3.11451C68.4766 3.07299 68.7673 3.03146 69.0995 3.03146C70.0547 3.03146 70.8437 3.15604 71.4666 3.36368C72.0895 3.57131 72.6293 3.90353 73.0031 4.27728C73.4184 4.65102 73.7091 5.10783 73.9167 5.60615C74.1243 6.10448 74.2904 6.64434 74.3735 7.18419C74.4566 7.76558 74.4981 8.30543 74.5396 8.92834C74.5396 9.50972 74.5396 10.0911 74.5396 10.631V14.8252H72.4632V10.4233C72.4632 10.0081 72.4632 9.59278 72.4632 9.05292C72.4632 8.55459 72.4217 8.05627 72.3802 7.51641C72.3387 6.97656 72.2141 6.47823 72.0895 5.9799C71.9649 5.48157 71.7573 5.0663 71.5081 4.65103C71.2589 4.27728 70.8852 3.94506 70.4699 3.6959C70.0547 3.44673 69.5148 3.32215 68.8504 3.32215C68.3105 3.32215 67.8952 3.36368 67.5215 3.44673C67.1477 3.52979 66.8571 3.61284 66.6079 3.6959C66.3587 3.77895 66.1511 3.90353 66.0265 4.02812C65.8604 4.19422 65.7358 4.31881 65.6528 4.40186Z" fill="black"/>
</svg>
