<svg width="30" height="30" viewBox="0 0 30 30" fill="none" xmlns="http://www.w3.org/2000/svg">
<path d="M15 0C6.73067 0 0 6.73067 0 15C0 23.2693 6.73067 30 15 30C23.2693 30 30 23.2693 30 15C30 6.73067 23.2693 0 15 0ZM15 2.5C21.9182 2.5 27.5 8.08183 27.5 15C27.5 21.9182 21.9182 27.5 15 27.5C8.08183 27.5 2.5 21.9182 2.5 15C2.5 8.08183 8.08183 2.5 15 2.5ZM7.00928 11.5063L5.49072 13.4937C5.49072 13.4937 7.39345 15 10 15C12.6066 15 14.5093 13.4937 14.5093 13.4937L12.9907 11.5063C12.9907 11.5063 11.6209 12.5 10 12.5C8.37906 12.5 7.00928 11.5063 7.00928 11.5063ZM17.0093 11.5063L15.4907 13.4937C15.4907 13.4937 17.3934 15 20 15C22.6066 15 24.5093 13.4937 24.5093 13.4937L22.9907 11.5063C22.9907 11.5063 21.6209 12.5 20 12.5C18.3791 12.5 17.0093 11.5063 17.0093 11.5063ZM15 18.75C12.3934 18.75 10.4907 20.2563 10.4907 20.2563L12.0093 22.2437C12.0093 22.2437 13.3791 21.25 15 21.25C16.6209 21.25 17.9907 22.2437 17.9907 22.2437L19.5093 20.2563C19.5093 20.2563 17.6066 18.75 15 18.75Z" fill="#E0CFBA"/>
</svg>
