<svg width="24" height="16" viewBox="0 0 24 16" fill="none" xmlns="http://www.w3.org/2000/svg">
<path d="M4.5 0C3.26591 0 2.25 1.01591 2.25 2.25V2.625H3.75V2.25C3.75 1.83409 4.08409 1.5 4.5 1.5H6C6.41591 1.5 6.75 1.83409 6.75 2.25C6.75 2.66591 6.41591 3 6 3H4.5V4.5H6C6.41591 4.5 6.75 4.87529 6.75 5.17529V5.25C6.75 5.66591 6.41591 6 6 6H4.5C4.08409 6 3.75 5.66591 3.75 5.25V4.875H2.25V5.25C2.25 6.48409 3.26591 7.5 4.5 7.5H6C7.23409 7.5 8.25 6.48409 8.25 5.25V5.17529C8.25 4.61361 7.99371 4.12153 7.63037 3.73535C7.99326 3.33522 8.25 2.82724 8.25 2.25C8.25 1.01591 7.23409 0 6 0H4.5ZM12.75 0C10.9829 0 9.46757 1.22332 9.09229 2.91211L9.07471 2.99268V3.07471C9.07471 3.24971 9 3.35 9 3.75V4.875C9 6.31786 10.1821 7.5 11.625 7.5H12.375C13.8179 7.5 15 6.31786 15 4.875C15 3.43214 13.8179 2.25 12.375 2.25H11.625C11.4065 2.25 11.197 2.28542 10.9937 2.33643C11.4029 1.82438 12.0303 1.5 12.75 1.5H13.5V0H12.75ZM18 0C16.7659 0 15.75 1.01591 15.75 2.25V3.375V4.125V5.25C15.75 6.48409 16.7659 7.5 18 7.5H19.5C20.7341 7.5 21.75 6.48409 21.75 5.25V2.25V2.17529H21.7427C21.7018 0.975916 20.7086 0 19.5 0H18ZM18 1.5H19.5C19.9159 1.5 20.25 1.83409 20.25 2.25V5.25C20.25 5.66591 19.9159 6 19.5 6H18C17.5841 6 17.25 5.66591 17.25 5.25V4.125V3.375V2.25C17.25 1.83409 17.5841 1.5 18 1.5ZM11.625 3.75H12.375C13.0321 3.75 13.5 4.21786 13.5 4.875C13.5 5.53214 13.0321 6 12.375 6H11.625C10.9679 6 10.5 5.53214 10.5 4.875C10.5 4.21786 10.9679 3.75 11.625 3.75ZM22.9263 7.20703L21.813 8.21338C22.2888 8.73958 22.5 9.2438 22.5 9.75C22.5 10.7655 21.5411 11.894 19.6377 12.7822C17.7343 13.6705 15.0119 14.25 12 14.25C8.98808 14.25 6.26571 13.6705 4.3623 12.7822C2.4589 11.894 1.5 10.7655 1.5 9.75C1.5 9.24751 1.70833 8.7476 2.17676 8.2251L1.05908 7.22461C0.410012 7.94861 0 8.81699 0 9.75C0 11.634 1.55968 13.1297 3.72803 14.1416C5.89637 15.1535 8.79892 15.75 12 15.75C15.2011 15.75 18.1036 15.1535 20.272 14.1416C22.4403 13.1297 24 11.634 24 9.75C24 8.81019 23.5844 7.93483 22.9263 7.20703Z" fill="#FCFCFC"/>
</svg>
