<svg width="26" height="48" viewBox="0 0 26 48" fill="none" xmlns="http://www.w3.org/2000/svg">
<path d="M10.75 5.14549e-05C10.4336 0.0625514 10.168 0.269582 10.0312 0.562551L9.24999 2.25005C8.84374 2.43364 3.76562 4.71489 0.593749 6.09379C0.234375 6.25395 0.00390599 6.60942 0 7.00004C0 10.8125 1.6289 13.7774 3.15625 16.1875C4.68359 18.5977 5.99999 20.5 5.99999 22C5.99999 22.418 5.80077 22.8203 5.28124 23.4688C4.76171 24.1172 3.98437 24.9297 3.1875 26.0625C1.59375 28.3281 0 31.8555 0 38C0 38.5508 0.449218 39 0.999999 39H12V48H14V39H25C25.5507 39 26 38.5508 26 38C26 31.8555 24.4062 28.3281 22.8125 26.0625C22.0156 24.9297 21.2383 24.1172 20.7187 23.4688C20.1992 22.8203 20 22.418 20 22C20 20.5 21.3164 18.5977 22.8437 16.1875C24.3711 13.7774 26 10.8125 26 7.00004C25.9961 6.60942 25.7656 6.25395 25.4062 6.09379C22.2343 4.71489 17.1562 2.43364 16.75 2.25005L15.9687 0.562551C15.8008 0.214895 15.4492 -0.00385454 15.0625 5.14549e-05H10.9375C10.9062 5.14549e-05 10.875 5.14549e-05 10.8437 5.14549e-05C10.8125 5.14549e-05 10.7812 5.14549e-05 10.75 5.14549e-05ZM11.5937 2.00005H14.4062L15.0937 3.43755C15.1992 3.64848 15.3789 3.81255 15.5937 3.9063C15.5937 3.9063 20.5156 6.12114 23.875 7.59379C23.707 10.5352 22.5312 12.9571 21.1562 15.125C21.0468 15.2969 20.9218 15.4571 20.8125 15.625C20.7929 15.6328 20.7695 15.6446 20.75 15.6563C20.75 15.6563 20.0195 16 19 16C17.5586 16 16.6875 15.25 16.6875 15.25C16.4531 15.0508 16.1445 14.9727 15.8437 15.0313C15.4648 15.1094 15.1679 15.3946 15.0742 15.7696C14.9804 16.1407 15.1094 16.5352 15.4062 16.7813C15.4062 16.7813 16.8398 18 19 18C19.125 18 19.2265 17.9766 19.3437 17.9688C18.582 19.2578 18 20.5508 18 22C18 23.0821 18.5508 23.9571 19.1562 24.7188C19.7617 25.4805 20.4843 26.2227 21.1875 27.2188C22.5 29.086 23.7695 31.9063 23.9375 37H2.0625C2.23047 31.9063 3.5 29.086 4.81249 27.2188C5.51562 26.2227 6.23827 25.4805 6.84374 24.7188C7.44921 23.9571 7.99999 23.0821 7.99999 22C7.99999 20.5508 7.41796 19.2578 6.65624 17.9688C6.77343 17.9766 6.87499 18 6.99999 18C9.16014 18 10.5937 16.7813 10.5937 16.7813C10.9297 16.4922 11.0351 16.0196 10.8555 15.6172C10.6758 15.211 10.25 14.9727 9.81249 15.0313C9.62889 15.0547 9.45702 15.1328 9.31249 15.25C9.31249 15.25 8.4414 16 6.99999 16C5.98046 16 5.24999 15.6563 5.24999 15.6563C5.23046 15.6446 5.20702 15.6328 5.18749 15.625C5.18359 15.6211 5.16015 15.6289 5.15624 15.625C5.05077 15.461 4.94921 15.293 4.84374 15.125C3.46875 12.9571 2.29297 10.5352 2.125 7.59379C5.48437 6.12114 10.4062 3.9063 10.4062 3.9063C10.6211 3.81255 10.8008 3.64848 10.9062 3.43755L11.5937 2.00005Z" fill="#A8715A"/>
</svg>
