<svg width="98" height="39" viewBox="0 0 98 39" fill="none" xmlns="http://www.w3.org/2000/svg">
<path d="M2.73029 29.4149V38.4815H0V18.4422H13.3424L13.703 20.3482C13.6515 20.3482 13.6515 20.3482 13.5999 20.2967C13.4969 20.2967 13.4454 20.2967 13.4454 20.2452C13.2393 19.9361 12.4666 19.627 11.1787 19.3179C9.83935 19.0088 8.08784 18.8543 5.8727 18.8543H2.73029V28.8997H11.4363V29.3633H2.73029V29.4149Z" fill="black"/>
<path d="M22.8726 32.815C22.8726 32.2998 22.8726 31.7847 22.8726 31.2695C22.8726 30.7029 22.8211 30.1877 22.8211 29.6211C22.6151 30.0847 22.2545 30.3938 21.7393 30.7029C21.2242 30.9604 20.6575 31.218 20.0393 31.4241C19.4211 31.6301 18.7514 31.8362 18.0818 31.9907C17.4121 32.1968 16.7424 32.4029 16.1757 32.712C15.609 33.021 15.1454 33.3816 14.7848 33.8453C14.4242 34.3089 14.2181 34.9271 14.2181 35.6483C14.2181 36.4725 14.4242 37.0392 14.8363 37.4513C15.2484 37.8634 15.8151 38.0695 16.5363 38.0695C17.2575 38.0695 18.1848 37.8634 19.1636 37.3998C20.1939 36.9362 21.3272 36.2665 22.5636 35.3907C22.2545 35.6998 21.8423 36.0604 21.3272 36.4725C20.812 36.8847 20.1939 37.2453 19.5242 37.6059C18.8545 37.9665 18.1848 38.2756 17.5151 38.4816C16.7939 38.7392 16.1757 38.8422 15.609 38.8422C15.1454 38.8422 14.6303 38.7907 14.1666 38.6877C13.703 38.5847 13.2394 38.4301 12.8272 38.1725C12.4151 37.915 12.106 37.6059 11.8485 37.1938C11.5909 36.7816 11.4363 36.215 11.4363 35.5453C11.4363 34.9786 11.5909 34.4635 11.9 34.0513C12.2091 33.6392 12.6212 33.2786 13.1363 32.9695C13.6515 32.6604 14.2697 32.4029 14.9393 32.1968C15.609 31.9907 16.2787 31.7847 16.9999 31.6301C17.7212 31.4241 18.3908 31.2695 19.0605 31.115C19.7302 30.9604 20.3484 30.7544 20.8636 30.5483C21.4302 30.3423 21.8423 30.0847 22.2029 29.8271C22.512 29.518 22.7181 29.2089 22.7696 28.7968C22.6666 28.1786 22.5636 27.612 22.3575 27.0453C22.203 26.4786 21.9454 26.015 21.6363 25.6029C21.3272 25.1908 20.9151 24.8817 20.4514 24.6241C19.9878 24.3665 19.3696 24.315 18.6999 24.315C17.6696 24.3665 16.8969 24.4696 16.3818 24.6756C15.8666 24.8817 15.506 25.1393 15.2484 25.4483C14.9909 25.7574 14.9393 26.0665 14.9393 26.4271C14.9393 26.7877 14.9393 27.0968 14.9393 27.4059C14.9393 27.7665 14.8363 28.0241 14.6303 28.2302C14.4242 28.4362 14.1666 28.4877 13.8575 28.4877C13.5484 28.4877 13.2394 28.3847 12.9303 28.1271C12.6212 27.8696 12.5181 27.5605 12.5181 27.1483C12.5181 26.5817 12.7757 26.0665 13.2394 25.6544C13.703 25.2423 14.3212 24.8817 14.9909 24.6241C15.6606 24.3665 16.3818 24.1605 17.103 24.0574C17.8242 23.9544 18.3908 23.9029 18.8545 23.9029C20.2969 23.9029 21.4817 24.109 22.3575 24.5211C23.2332 24.9332 23.9029 25.4999 24.3666 26.1696C24.8302 26.8393 25.1393 27.6635 25.2938 28.5908C25.4484 29.518 25.4999 30.4453 25.4999 31.4756V38.5331H22.9242V32.815H22.8726Z" fill="black"/>
<path d="M31.1666 37.4513C31.4241 37.8119 31.8362 38.0695 32.4029 38.224C32.9696 38.3786 33.5362 38.4816 34.2059 38.4816C34.8241 38.4816 35.4938 38.4301 36.112 38.2755C36.7817 38.121 37.3483 37.9149 37.8635 37.6573C38.3786 37.3998 38.8423 37.0907 39.1514 36.6786C39.512 36.318 39.6665 35.8543 39.6665 35.3392C39.6665 34.721 39.4089 34.2059 38.8423 33.8452C38.2756 33.4846 37.5544 33.1756 36.7302 32.918C35.9059 32.6604 34.9787 32.4028 33.9999 32.1968C33.0211 31.9907 32.0938 31.6816 31.2696 31.3725C30.4453 31.0119 29.7241 30.5998 29.1575 30.0331C28.5908 29.4665 28.3332 28.7453 28.3332 27.8695C28.3332 27.0453 28.5393 26.3756 28.9514 25.8604C29.3635 25.3453 29.9302 24.9332 30.5484 24.6241C31.2181 24.315 31.8878 24.1089 32.6605 24.0059C33.4332 23.9029 34.1029 23.8514 34.7726 23.8514C35.0817 23.8514 35.4938 23.9029 36.009 23.9544C36.5241 24.0059 37.0393 24.1604 37.5029 24.3665C37.9665 24.5726 38.4302 24.7786 38.7908 25.0877C39.1514 25.3968 39.3574 25.8089 39.3574 26.2726C39.3574 26.5816 39.2544 26.8392 38.9968 27.0453C38.7392 27.2513 38.4817 27.3544 38.1726 27.3544C37.7605 27.3544 37.5029 27.2513 37.2968 27.0968C37.0908 26.9422 36.9877 26.7362 36.8847 26.4786C36.7817 26.2726 36.7302 26.015 36.6786 25.7574C36.6271 25.4998 36.5756 25.2938 36.4211 25.1392C36.1635 24.8301 35.8544 24.5726 35.5453 24.4695C35.1847 24.3665 34.7726 24.2635 34.309 24.2635C33.7938 24.2635 33.2787 24.315 32.7635 24.418C32.1969 24.521 31.7332 24.6756 31.2696 24.8817C30.806 25.0877 30.4453 25.3968 30.1878 25.7059C29.8787 26.0665 29.7757 26.4786 29.7757 26.9422C29.7757 27.4059 29.9302 27.818 30.2908 28.1271C30.5999 28.4362 31.0635 28.6938 31.5787 28.9513C32.0938 29.1574 32.712 29.3634 33.4332 29.518C34.1029 29.6725 34.8241 29.8271 35.5453 30.0331C36.2665 30.2392 36.9877 30.4453 37.6574 30.6513C38.3271 30.8574 38.9453 31.1665 39.512 31.4756C40.0271 31.7847 40.4908 32.1968 40.7998 32.6604C41.1089 33.124 41.315 33.7422 41.315 34.4119C41.315 35.1846 41.1089 35.8543 40.6968 36.421C40.2847 36.9877 39.7695 37.3998 39.0999 37.7604C38.4302 38.121 37.7089 38.3786 36.8847 38.5331C36.0605 38.6877 35.1847 38.7907 34.309 38.7907C33.9999 38.7907 33.6908 38.7907 33.2787 38.7392C32.8665 38.6877 32.4544 38.6876 31.9908 38.5846C31.5272 38.5331 31.115 38.4301 30.6514 38.2755C30.1878 38.1725 29.8272 38.018 29.4666 37.8119C29.106 37.6058 28.8484 37.3998 28.5908 37.1422C28.3847 36.8846 28.2817 36.5755 28.2817 36.1634C28.2817 35.8543 28.3847 35.6483 28.6423 35.4422C28.8999 35.2362 29.1575 35.1331 29.4666 35.1331C29.8787 35.1331 30.1363 35.2362 30.3423 35.3907C30.5484 35.5452 30.6514 35.7513 30.7544 36.0089C30.806 36.2664 30.909 36.4725 30.909 36.7301C30.9605 37.0907 31.0635 37.2967 31.1666 37.4513Z" fill="black"/>
<path d="M43.2725 18.4422L45.8483 17.0513V38.5331H43.2725V18.4422ZM46.1574 25.6028C46.3634 25.2937 46.6725 25.0362 46.9816 24.8301C47.2907 24.624 47.6513 24.418 48.0634 24.3149C48.4755 24.2119 48.8361 24.0574 49.2483 24.0059C49.6604 23.9543 50.021 23.9028 50.4331 23.9028C51.6179 23.9028 52.5967 24.0574 53.3694 24.3149C54.1422 24.5725 54.8119 24.9846 55.2755 25.4483C55.7907 25.9119 56.1513 26.4786 56.4088 27.0968C56.6664 27.7149 56.8725 28.3846 56.9755 29.0543C57.0785 29.7755 57.13 30.4452 57.1816 31.2179C57.1816 31.9392 57.1816 32.6604 57.1816 33.3301V38.5331H54.6058V33.0725C54.6058 32.5573 54.6058 32.0422 54.6058 31.424C54.6058 30.8058 54.5543 30.1876 54.5028 29.518C54.4513 28.8483 54.2967 28.2301 54.1422 27.6119C53.9876 26.9937 53.7301 26.4786 53.421 25.9634C53.1119 25.4998 52.6482 25.0877 52.1331 24.8301C51.6179 24.521 50.9482 24.3665 50.124 24.3665C49.4543 24.3665 48.9392 24.418 48.4755 24.521C48.0119 24.624 47.6513 24.7271 47.3422 24.8301C47.0331 24.9331 46.7755 25.0877 46.621 25.2422C46.4149 25.3968 46.2604 25.4998 46.1574 25.6028Z" fill="black"/>
<path d="M63.0194 23.4392V38.4815H60.4436V24.8301L63.0194 23.4392Z" fill="black"/>
<path d="M59.7376 19.0081C59.3315 19.2216 58.3284 19.3165 58.3284 19.3165V19.696C58.3284 19.696 59.3315 19.7908 59.7376 20.0043C60.1197 20.2178 60.4541 20.5024 60.6929 20.8819C60.9556 21.2614 61.1228 21.6883 61.2423 22.1864C61.3617 22.6845 61.4094 23.1138 61.4094 23.1138H61.7438C61.7438 23.1138 61.8617 22.4329 61.911 22.1864C62.0304 21.6883 62.2215 21.2614 62.4603 20.8819C62.6992 20.5024 63.0097 20.2178 63.4157 20.0043C63.8217 19.7908 64.8248 19.696 64.8248 19.696V19.3165C64.8248 19.3165 63.8217 19.2216 63.4157 19.0081C63.0335 18.7946 62.6992 18.51 62.4603 18.1305C62.1976 17.751 62.0304 17.3241 61.911 16.826C61.8562 16.5324 61.7438 15.7844 61.7438 15.7844H61.4094C61.4094 15.7844 61.2984 16.6363 61.2423 16.826C61.1228 17.3241 60.9318 17.751 60.6929 18.1305C60.4541 18.51 60.1436 18.7946 59.7376 19.0081Z" fill="black"/>
<path d="M66.1177 31.3725C66.1177 30.3937 66.2722 29.4665 66.5813 28.5392C66.8904 27.6119 67.4056 26.8392 68.0753 26.118C68.745 25.3968 69.5692 24.8816 70.548 24.4695C71.5268 24.0574 72.7116 23.8514 74.051 23.8514C75.3904 23.8514 76.5752 24.0574 77.554 24.4695C78.5328 24.8816 79.357 25.4483 80.0267 26.1695C80.6964 26.8907 81.1601 27.6635 81.4691 28.5907C81.7782 29.4665 81.9328 30.4453 81.9328 31.3725C81.9328 32.3513 81.7782 33.2786 81.4691 34.2059C81.1601 35.1331 80.6449 35.9058 79.9752 36.6271C79.3055 37.3483 78.4813 37.8634 77.5025 38.2755C76.5237 38.6877 75.3389 38.8937 74.051 38.8937C72.7631 38.8937 71.5268 38.6877 70.548 38.2755C69.5692 37.8634 68.745 37.2967 68.0753 36.5755C67.4056 35.8543 66.9419 35.0816 66.5813 34.1543C66.2722 33.2786 66.1177 32.3513 66.1177 31.3725ZM72.7116 24.4695C71.8359 24.4695 71.1146 24.6756 70.548 25.0877C69.9813 25.4998 69.5177 26.015 69.2086 26.6332C68.8995 27.2513 68.745 28.0241 68.6419 28.8483C68.5904 29.6725 68.6419 30.5483 68.7965 31.424C68.951 32.2998 69.2086 33.124 69.6207 33.9998C69.9813 34.824 70.4449 35.5452 71.0116 36.2149C71.5783 36.8331 72.1965 37.3998 72.9177 37.7604C73.6389 38.1725 74.4116 38.3786 75.2874 38.3786C76.1631 38.3786 76.8328 38.1725 77.3995 37.7604C77.9661 37.3483 78.3782 36.8331 78.6873 36.2149C78.9964 35.5968 79.151 34.824 79.254 33.9998C79.3055 33.1756 79.254 32.2998 79.0995 31.424C78.9449 30.5483 78.6358 29.7241 78.2752 28.8483C77.9146 28.0241 77.451 27.3029 76.8843 26.6332C76.3177 26.015 75.6995 25.4483 74.9783 25.0877C74.2571 24.7271 73.5874 24.4695 72.7116 24.4695Z" fill="black"/>
<path d="M84.1425 24.8301L86.7182 23.4392V38.4816H84.1425V24.8301ZM86.9758 25.6028C87.1819 25.2937 87.4909 25.0362 87.8 24.8301C88.1091 24.6241 88.4697 24.418 88.8818 24.315C89.294 24.2119 89.6546 24.0574 90.0667 24.0059C90.4788 23.9544 90.8394 23.9028 91.2515 23.9028C92.4364 23.9028 93.4152 24.0574 94.1879 24.315C94.9606 24.5725 95.6303 24.9847 96.0939 25.4483C96.6091 25.9119 96.9697 26.4786 97.2273 27.0968C97.4848 27.7149 97.6909 28.3846 97.7939 29.0543C97.897 29.7755 97.9485 30.4452 98 31.218C98 31.9392 98 32.6604 98 33.3301V38.5331H95.4242V33.0725C95.4242 32.5574 95.4242 32.0422 95.4242 31.424C95.4242 30.8058 95.3727 30.1877 95.3212 29.518C95.2697 28.8483 95.1152 28.2301 94.9606 27.6119C94.8061 26.9937 94.5485 26.4786 94.2394 25.9634C93.9303 25.4998 93.4667 25.0877 92.9515 24.8301C92.4364 24.521 91.7667 24.3665 90.9424 24.3665C90.2727 24.3665 89.7576 24.418 89.294 24.521C88.8303 24.6241 88.4697 24.7271 88.1606 24.8301C87.8515 24.9331 87.594 25.0877 87.4394 25.2422C87.2334 25.3968 87.0788 25.4998 86.9758 25.6028Z" fill="black"/>
<path d="M28.1208 0C30.1814 0 31.9844 0.30909 33.5298 0.875754C35.0753 1.49393 36.3632 2.26666 37.3935 3.24544C38.4238 4.22422 39.1965 5.30604 39.7116 6.59391C40.2268 7.83027 40.4844 9.11814 40.4844 10.4575C40.4844 11.7454 40.2268 13.0333 39.7116 14.2696C39.1965 15.506 38.4238 16.6393 37.3935 17.6181C36.3632 18.5969 35.0753 19.3696 33.5298 19.9878C31.9844 20.606 30.1814 20.9151 28.1208 20.9151C26.0602 20.9151 24.2572 20.606 22.7117 19.9878C21.1663 19.3696 19.8784 18.5969 18.8481 17.6181C17.8178 16.6393 17.0451 15.506 16.5299 14.2696C16.0148 13.0333 15.7572 11.7454 15.7572 10.4575C15.7572 9.11814 16.0148 7.88178 16.5299 6.59391C17.0451 5.35755 17.8178 4.22422 18.8481 3.24544C19.8784 2.26666 21.1663 1.49393 22.7117 0.875754C24.2572 0.30909 26.0602 0 28.1208 0ZM29.6662 20.2454C31.2117 20.2454 32.5511 19.9878 33.6329 19.4211C34.7147 18.8545 35.5904 18.1333 36.2601 17.206C36.9298 16.2787 37.3419 15.2484 37.548 14.0636C37.7541 12.8787 37.7541 11.6939 37.5995 10.4575C37.3935 9.22117 37.0329 8.03633 36.4147 6.85148C35.7965 5.66664 35.0753 4.63634 34.148 3.70907C33.2208 2.78181 32.1389 2.0606 30.8511 1.49393C29.5632 0.927269 28.1723 0.669694 26.6268 0.669694C25.0299 0.669694 23.6905 0.927269 22.6087 1.49393C21.5269 2.0606 20.6511 2.78181 20.0329 3.70907C19.3632 4.63634 18.9511 5.66664 18.7451 6.85148C18.539 8.03633 18.539 9.22117 18.6935 10.4575C18.8996 11.6939 19.2602 12.8787 19.8269 14.0636C20.3935 15.2484 21.1663 16.2787 22.0935 17.206C23.0208 18.1333 24.1541 18.8545 25.3905 19.4211C26.6784 19.9363 28.1208 20.2454 29.6662 20.2454Z" fill="black"/>
<path d="M43.2725 4.84221L45.8483 3.45131V12.0028C45.8998 12.8785 46.0543 13.7543 46.3119 14.527C46.5695 15.2997 46.9301 16.021 47.4452 16.5876C47.9089 17.1543 48.4755 17.6694 49.1967 17.9785C49.8664 18.3391 50.6392 18.4937 51.5149 18.4937C52.5967 18.4937 53.421 18.1331 54.0907 17.4634C54.7603 16.7937 55.1725 15.9179 55.43 14.8876C55.6876 13.8573 55.7391 12.724 55.6361 11.5392C55.5331 10.3543 55.224 9.22098 54.7604 8.19068C54.2967 7.16039 53.6785 6.28463 52.9058 5.61494C52.1331 4.94524 51.2058 4.58464 50.1755 4.58464C49.8149 4.58464 49.4028 4.63615 49.0422 4.7907C48.6816 4.94524 48.321 5.09979 47.9604 5.30585C47.5998 5.51191 47.2907 5.76948 47.0331 6.02706C46.724 6.28463 46.518 6.59372 46.3634 6.8513C46.7755 5.97554 47.4452 5.25433 48.321 4.68767C49.2483 4.121 50.227 3.86343 51.2573 3.86343C52.5452 3.86343 53.627 4.06949 54.5543 4.48161C55.4816 4.89373 56.2028 5.46039 56.8209 6.1816C57.3876 6.90281 57.8512 7.67553 58.1088 8.6028C58.3664 9.53007 58.5209 10.4058 58.5209 11.3846C58.5209 12.3634 58.3664 13.2391 58.1088 14.1664C57.8512 15.0422 57.3876 15.8664 56.8209 16.5876C56.2543 17.3088 55.4816 17.8755 54.5543 18.2876C53.627 18.6997 52.5452 18.9573 51.3088 18.9573C49.9695 18.9573 48.8361 18.7512 47.9604 18.3906C47.0846 18.03 46.4149 17.5149 45.8998 16.8967V25.7058H43.324V4.84221H43.2725Z" fill="black"/>
<path d="M64.5379 8.80886C64.5379 9.78765 64.6924 10.7664 65.0015 11.7967C65.3106 12.827 65.7742 13.7028 66.3409 14.5785C66.9075 15.4028 67.6287 16.0725 68.453 16.5876C69.2772 17.1028 70.2045 17.3603 71.1833 17.3603C72.1105 17.3603 72.9348 17.1543 73.656 16.7937C74.3772 16.3816 74.9954 15.9179 75.5105 15.4028C76.0257 14.8876 76.4378 14.321 76.6954 13.8058C77.0045 13.2907 77.159 12.8785 77.159 12.621C77.1075 13.2907 76.8499 14.0119 76.4378 14.6816C76.0257 15.3513 75.5105 15.9694 74.8408 16.5361C74.1711 17.1028 73.4499 17.5149 72.5742 17.8755C71.6984 18.1846 70.7712 18.3906 69.7924 18.3906C68.453 18.3906 67.2681 18.1846 66.2894 17.7725C65.3106 17.3603 64.4863 16.7937 63.8166 16.0725C63.147 15.3513 62.6833 14.5785 62.3227 13.6513C62.0136 12.7755 61.8591 11.7967 61.8591 10.8695C61.8591 9.58159 62.0651 8.49977 62.4773 7.5725C62.8894 6.64524 63.456 5.87251 64.1257 5.25433C64.7954 4.63615 65.5681 4.17252 66.4439 3.91495C67.3197 3.60586 68.1954 3.45131 69.0712 3.45131C69.7409 3.45131 70.4106 3.55434 71.0287 3.7604C71.6984 3.96646 72.2651 4.27555 72.8318 4.68767C73.3984 5.09979 73.8621 5.56342 74.2742 6.07857C74.6863 6.64524 74.9954 7.2119 75.253 7.88159C75.356 8.19068 75.3045 8.44826 75.1499 8.65432C74.9954 8.86038 74.7378 8.96341 74.3772 8.96341H64.5379V8.80886ZM68.556 3.81192C67.8863 3.81192 67.3197 3.91495 66.8045 4.17252C66.2894 4.43009 65.8772 4.73918 65.5681 5.1513C65.2591 5.56342 65.0015 6.07857 64.7954 6.59372C64.6409 7.16039 64.5379 7.72705 64.4863 8.34523H72.9348C72.8318 7.98462 72.6772 7.57251 72.4712 7.05736C72.2651 6.54221 71.956 6.02706 71.5954 5.56342C71.2348 5.09979 70.8227 4.68767 70.3075 4.32706C69.7924 3.96646 69.1742 3.81192 68.556 3.81192Z" fill="black"/>
<path d="M78.5578 4.68781L81.1336 3.29691V18.3393H78.5578V4.68781ZM81.4427 5.46054C81.6487 5.15145 81.9578 4.89387 82.2669 4.68781C82.576 4.48175 82.9366 4.27569 83.3487 4.17266C83.7608 4.01812 84.1214 3.91509 84.5336 3.86357C84.9457 3.81206 85.3063 3.76054 85.7184 3.76054C86.9032 3.76054 87.882 3.91509 88.6547 4.17266C89.4275 4.43024 90.0972 4.84236 90.5608 5.30599C91.0759 5.76963 91.4366 6.33629 91.6941 6.95447C91.9517 7.57265 92.1578 8.24234 92.2608 8.91204C92.3638 9.63325 92.4153 10.3029 92.4669 11.0757C92.4669 11.7969 92.4669 12.5181 92.4669 13.1878V18.3908H89.8911V12.9302C89.8911 12.4151 89.8911 11.8999 89.8911 11.2302C89.8911 10.612 89.8396 9.99385 89.7881 9.32416C89.7366 8.65446 89.582 8.03628 89.4275 7.4181C89.2729 6.79992 89.0154 6.28478 88.7063 5.76963C88.3972 5.30599 87.9335 4.89387 87.4184 4.58478C86.9032 4.27569 86.2335 4.12115 85.4093 4.12115C84.7396 4.12115 84.2245 4.17266 83.7608 4.27569C83.2972 4.37872 82.9366 4.48175 82.6275 4.58478C82.3184 4.68781 82.0608 4.84236 81.9063 4.9969C81.7002 5.20296 81.5457 5.35751 81.4427 5.46054Z" fill="black"/>
</svg>
