<svg width="22" height="22" viewBox="0 0 22 22" fill="none" xmlns="http://www.w3.org/2000/svg">
<path d="M6.49996 0C2.91623 0 0 2.91623 0 6.49996V15.4999C0 19.0837 2.91623 21.9999 6.49996 21.9999H15.4999C19.0837 21.9999 21.9999 19.0837 21.9999 15.4999V6.49996C21.9999 2.91623 19.0837 0 15.4999 0H6.49996ZM6.49996 0.999994H15.4999C18.5431 0.999994 20.9999 3.45674 20.9999 6.49996V15.4999C20.9999 18.5431 18.5431 20.9999 15.4999 20.9999H6.49996C3.45674 20.9999 0.999994 18.5431 0.999994 15.4999V6.49996C0.999994 3.45674 3.45674 0.999994 6.49996 0.999994ZM16.9999 3.99998C16.7347 3.99998 16.4803 4.10533 16.2928 4.29287C16.1053 4.48041 15.9999 4.73476 15.9999 4.99997C15.9999 5.26519 16.1053 5.51954 16.2928 5.70708C16.4803 5.89461 16.7347 5.99997 16.9999 5.99997C17.2651 5.99997 17.5195 5.89461 17.707 5.70708C17.8945 5.51954 17.9999 5.26519 17.9999 4.99997C17.9999 4.73476 17.8945 4.48041 17.707 4.29287C17.5195 4.10533 17.2651 3.99998 16.9999 3.99998ZM10.9999 5.49997C7.96831 5.49997 5.49997 7.96831 5.49997 10.9999C5.49997 14.0316 7.96831 16.4999 10.9999 16.4999C14.0316 16.4999 16.4999 14.0316 16.4999 10.9999C16.4999 7.96831 14.0316 5.49997 10.9999 5.49997ZM10.9999 6.49996C13.4911 6.49996 15.4999 8.50875 15.4999 10.9999C15.4999 13.4911 13.4911 15.4999 10.9999 15.4999C8.50875 15.4999 6.49996 13.4911 6.49996 10.9999C6.49996 8.50875 8.50875 6.49996 10.9999 6.49996Z" fill="#333333"/>
</svg>
