<svg width="51" height="42" viewBox="0 0 51 42" fill="none" xmlns="http://www.w3.org/2000/svg">
<path d="M34.8936 0C28.7966 0 23.8386 4.95803 23.8386 11.055C23.8386 11.4214 23.9302 11.7798 23.966 12.1382C16.4275 11.4174 9.761 7.7855 5.23306 2.23012C5.022 1.9633 4.69545 1.81994 4.35296 1.84383C4.01446 1.86772 3.7118 2.06286 3.54455 2.35755C2.59276 3.9943 2.04718 5.87795 2.04718 7.90099C2.04718 10.3501 2.9233 12.5922 4.2773 14.432C4.01446 14.3166 3.72773 14.2528 3.48083 14.1135C3.16622 13.9462 2.7879 13.9542 2.48126 14.1374C2.17462 14.3205 1.98744 14.6511 1.98346 15.0055V15.1329C1.98346 18.8883 3.92685 22.1498 6.79415 24.149C6.76229 24.145 6.73043 24.157 6.69857 24.149C6.34812 24.0893 5.99369 24.2127 5.75873 24.4795C5.52377 24.7463 5.44811 25.1167 5.55165 25.4552C6.6906 28.9955 9.59772 31.6995 13.1978 32.6872C10.3305 34.3916 7.00521 35.3952 3.41711 35.3952C2.64055 35.3952 1.89585 35.3553 1.15513 35.2677C0.677251 35.204 0.21928 35.4828 0.0599866 35.9368C-0.10329 36.3907 0.075916 36.8965 0.486098 37.1474C5.08572 40.0983 10.5455 41.8306 16.4155 41.8306C25.9293 41.8306 33.3923 37.8562 38.3981 32.1774C43.4039 26.4986 46.0124 19.1233 46.0124 12.2338C46.0124 11.9431 45.9885 11.6603 45.9805 11.3736C47.8482 9.94393 49.5168 8.26736 50.823 6.30805C51.0819 5.92972 51.054 5.42397 50.7553 5.07352C50.4606 4.72307 49.9628 4.61555 49.5487 4.81068C49.023 5.04564 48.4097 5.06953 47.8602 5.25671C48.585 4.28899 49.2062 3.24562 49.5805 2.07082C49.708 1.66861 49.5686 1.22656 49.2381 0.96373C48.9075 0.704876 48.4456 0.673017 48.0832 0.892047C46.3429 1.92348 44.4154 2.64826 42.3805 3.09031C40.4052 1.24249 37.8047 0 34.8936 0ZM34.8936 2.03896C37.4941 2.03896 39.8437 3.15004 41.4884 4.90626C41.7353 5.16113 42.0977 5.26865 42.4442 5.19299C43.7743 4.93015 45.0367 4.54386 46.2672 4.04607C45.5584 5.00184 44.6823 5.81822 43.6548 6.43548C43.1889 6.66248 42.9698 7.20009 43.1411 7.68992C43.3083 8.17577 43.8181 8.45852 44.3238 8.34701C45.3433 8.22356 46.2513 7.80939 47.223 7.55054C46.3509 8.49436 45.3951 9.34658 44.3557 10.0992C44.073 10.3063 43.9176 10.6408 43.9415 10.9913C43.9575 11.4055 43.9734 11.8156 43.9734 12.2338C43.9734 18.6056 41.5282 25.5229 36.8689 30.8075C32.2095 36.0921 25.3678 39.7917 16.4155 39.7917C12.3495 39.7917 8.51054 38.8917 5.04191 37.3067C9.34285 36.9761 13.3093 35.4549 16.5111 32.942C16.8456 32.6752 16.977 32.2292 16.8416 31.823C16.7062 31.4168 16.3319 31.138 15.9058 31.1261C12.5447 31.0663 9.72914 29.111 8.22779 26.3472C8.28355 26.3472 8.33133 26.3472 8.38709 26.3472C9.39462 26.3472 10.3902 26.2198 11.3181 25.9649C11.7641 25.8335 12.0708 25.4194 12.0548 24.9534C12.0389 24.4875 11.7084 24.0893 11.2544 23.9897C7.62646 23.2569 4.90651 20.302 4.2773 16.6303C5.30475 16.9847 6.35609 17.2635 7.49504 17.2993C7.96097 17.3272 8.3831 17.0365 8.52647 16.5945C8.66983 16.1524 8.49461 15.6666 8.10036 15.4197C5.67909 13.7989 4.08615 11.0391 4.08615 7.90099C4.08615 6.73814 4.3888 5.67087 4.78704 4.65139C9.88445 10.2466 17.0208 13.9621 25.0811 14.3683C25.3997 14.3843 25.7103 14.2528 25.9174 14.0099C26.1245 13.763 26.2041 13.4365 26.1324 13.1258C25.9771 12.4648 25.8776 11.7639 25.8776 11.055C25.8776 6.06114 29.8998 2.03896 34.8936 2.03896Z" fill="#DD8560"/>
</svg>
