<svg width="19" height="24" viewBox="0 0 19 24" fill="none" xmlns="http://www.w3.org/2000/svg">
<path d="M8.48516 0.000213149C8.43942 0.00149913 8.39408 0.00905645 8.35039 0.0226736L0.350578 2.52262C0.248885 2.55447 0.160027 2.61798 0.0969622 2.70388C0.0338979 2.78978 -7.42068e-05 2.89358 1.21709e-07 3.00014V21.4997C-4.40055e-05 21.6113 0.037229 21.7197 0.105888 21.8076C0.174547 21.8956 0.270647 21.958 0.378897 21.9851L8.37871 23.985C8.45244 24.0034 8.52938 24.0048 8.60371 23.989C8.67803 23.9732 8.74778 23.9406 8.80765 23.8939C8.86752 23.8471 8.91594 23.7873 8.94923 23.719C8.98253 23.6506 8.99982 23.5757 8.99979 23.4997V0.500202C8.99981 0.433293 8.98641 0.367061 8.96037 0.305428C8.93433 0.243795 8.89618 0.188014 8.84819 0.141391C8.8002 0.0947671 8.74335 0.0582487 8.68099 0.0339986C8.61863 0.00974848 8.55204 -0.00174018 8.48516 0.000213149ZM7.99982 1.18085V22.8591L0.999977 21.1091V3.36732L7.99982 1.18085ZM9.99977 2.00017V3.00014H13.9997V12.9999H14.9997V2.50016C14.9996 2.36755 14.947 2.24039 14.8532 2.14663C14.7594 2.05286 14.6323 2.00018 14.4997 2.00017H9.99977ZM6.99984 11.5C6.86723 11.5 6.74006 11.579 6.64629 11.7196C6.55253 11.8603 6.49985 12.051 6.49985 12.2499C6.49985 12.4488 6.55253 12.6396 6.64629 12.7803C6.74006 12.9209 6.86723 12.9999 6.99984 12.9999C7.13244 12.9999 7.25962 12.9209 7.35338 12.7803C7.44715 12.6396 7.49983 12.4488 7.49983 12.2499C7.49983 12.051 7.44715 11.8603 7.35338 11.7196C7.25962 11.579 7.13244 11.5 6.99984 11.5ZM10.4998 13.9999C10.3672 13.9999 10.24 14.0526 10.1462 14.1464C10.0525 14.2401 9.99978 14.3673 9.99977 14.4999V21.4997C9.99978 21.6323 10.0525 21.7595 10.1462 21.8533C10.24 21.947 10.3672 21.9997 10.4998 21.9997H18.4996C18.6322 21.9997 18.7593 21.947 18.8531 21.8533C18.9469 21.7595 18.9995 21.6323 18.9996 21.4997V14.4999C18.9995 14.3673 18.9469 14.2401 18.8531 14.1464C18.7593 14.0526 18.6322 13.9999 18.4996 13.9999H10.4998ZM10.9997 14.9999H17.9996V20.9997H10.9997V14.9999ZM13.4997 15.9998C13.4334 15.9989 13.3677 16.0112 13.3062 16.0359C13.2447 16.0606 13.1887 16.0972 13.1415 16.1438C13.0944 16.1903 13.0569 16.2457 13.0313 16.3068C13.0057 16.368 12.9926 16.4336 12.9926 16.4998C12.9926 16.5661 13.0057 16.6317 13.0313 16.6928C13.0569 16.754 13.0944 16.8094 13.1415 16.8559C13.1887 16.9024 13.2447 16.9391 13.3062 16.9638C13.3677 16.9885 13.4334 17.0008 13.4997 16.9998H15.4996C15.5659 17.0008 15.6317 16.9885 15.6932 16.9638C15.7546 16.9391 15.8106 16.9024 15.8578 16.8559C15.905 16.8094 15.9424 16.754 15.968 16.6928C15.9936 16.6317 16.0068 16.5661 16.0068 16.4998C16.0068 16.4336 15.9936 16.368 15.968 16.3068C15.9424 16.2457 15.905 16.1903 15.8578 16.1438C15.8106 16.0972 15.7546 16.0606 15.6932 16.0359C15.6317 16.0112 15.5659 15.9989 15.4996 15.9998H13.4997Z" fill="black"/>
</svg>
