<svg width="48" height="48" viewBox="0 0 48 48" fill="none" xmlns="http://www.w3.org/2000/svg">
<path d="M35 0C28.885 0 23.756 3.74272 22.377 8.76172C20.49 7.84772 18.2015 8.06016 16.5645 9.41016L11.6719 13H8C7.447 13 7 13.448 7 14V17.2988C6.986 17.3098 6.96712 17.3113 6.95312 17.3223L0.363281 22.748C0.133281 22.938 0 23.2225 0 23.5215V46.9883C0 47.5403 0.447 47.9883 1 47.9883H38.9961C39.5491 47.9883 39.9961 47.5403 39.9961 46.9883V23.5215C39.9961 23.2095 39.8496 22.9156 39.6016 22.7266L39.0703 22.3203C44.2493 20.8113 48 16.5132 48 11.4512C48 5.13717 42.168 0 35 0ZM35 2C41.065 2 46 6.24017 46 11.4512C46 16.6632 41.065 20.9023 35 20.9023C34.072 20.9023 33.1711 20.7961 32.2441 20.5781C31.8801 20.4911 31.4989 20.6183 31.2559 20.9023C30.8899 21.3303 29.6495 22.5988 27.6055 22.9238C28.0945 22.0568 28.3571 21.3062 28.4961 20.7832C28.6431 20.2412 28.6698 19.9589 28.6758 19.7129C28.6888 19.3689 28.5213 19.0426 28.2363 18.8496C25.5433 17.0276 24 14.3302 24 11.4512C24 6.24017 28.935 2 35 2ZM35 5.09961C34.4 5.09961 34 5.49961 34 6.09961V10H30.0996C29.4996 10 29.0996 10.4 29.0996 11C29.0996 11.6 29.4996 12 30.0996 12H34V15.9004C34 16.5004 34.4 16.9004 35 16.9004C35.6 16.9004 36 16.5004 36 15.9004V12H39.9004C40.5004 12 40.9004 11.6 40.9004 11C40.9004 10.4 40.5004 10 39.9004 10H36V6.09961C36 5.49961 35.6 5.09961 35 5.09961ZM19.8945 10.2051C20.6433 10.1863 21.3982 10.4091 22.0332 10.8711C22.0222 11.0641 22 11.2552 22 11.4512C22 11.9752 22.0548 12.49 22.1348 13H15.0527L17.793 10.9883C18.404 10.4843 19.1458 10.2238 19.8945 10.2051ZM22.6328 14.9453C23.3668 16.9363 24.7177 18.7327 26.5957 20.1387C26.5857 20.1777 26.5745 20.2187 26.5625 20.2637C26.4175 20.8077 26.1012 21.6661 25.4082 22.6621L24.873 23.4277C24.66 23.7337 24.6366 24.1329 24.8086 24.4629C24.9806 24.7929 25.3204 25 25.6934 25H26.627C28.488 25 29.9481 24.3878 30.9961 23.7188V29.6133L26.6133 33.0332L24.834 31.6484C22.031 29.4664 17.9651 29.4664 15.1621 31.6484L13.3848 33.0312L9 29.6113V15H22.3633C22.4583 15 22.5458 14.9703 22.6328 14.9453ZM7 19.875V28.0508L2 24.1504V23.9922L7 19.875ZM32.9961 22.7402C33.6641 22.8382 34.334 22.9023 35 22.9023C35.486 22.9023 35.9655 22.8741 36.4375 22.8281L37.9961 24.0156V24.1504L32.9961 28.0527V22.7402ZM2 26.6875L11.7559 34.2988L2 41.8926V26.6875ZM37.9961 26.6875V41.8926L28.2402 34.3008L37.9961 26.6875ZM19.998 32.0039C21.2793 32.0039 22.5605 32.4111 23.6055 33.2246L37.9961 44.4277V45.9883H2V44.4277L16.3906 33.2246C17.4356 32.4111 18.7168 32.0039 19.998 32.0039Z" fill="#DD8560"/>
</svg>
