<svg width="19" height="24" viewBox="0 0 19 24" fill="none" xmlns="http://www.w3.org/2000/svg">
<path d="M8.4852 0.00021315C8.43946 0.00149914 8.39411 0.00905649 8.35043 0.0226737L0.35058 2.52263C0.248886 2.55448 0.160027 2.61799 0.0969627 2.70389C0.033898 2.78979 -7.42072e-05 2.89359 1.2171e-07 3.00016V21.4998C-4.40057e-05 21.6114 0.0372292 21.7198 0.105888 21.8077C0.174548 21.8957 0.270648 21.9581 0.378899 21.9852L8.37875 23.9851C8.45248 24.0035 8.52942 24.0049 8.60375 23.9891C8.67807 23.9733 8.74782 23.9408 8.80769 23.894C8.86756 23.8472 8.91598 23.7874 8.94928 23.7191C8.98257 23.6508 8.99986 23.5758 8.99983 23.4998V0.500204C8.99986 0.433295 8.98645 0.367063 8.96041 0.305429C8.93437 0.243796 8.89622 0.188015 8.84823 0.141391C8.80024 0.0947675 8.74339 0.058249 8.68103 0.0339988C8.61867 0.00974853 8.55208 -0.00174019 8.4852 0.00021315ZM7.99985 1.18086V22.8592L0.999982 21.1092V3.36734L7.99985 1.18086ZM9.99982 2.00018V3.00016H13.9997V13H14.9997V2.50017C14.9997 2.36757 14.947 2.2404 14.8533 2.14664C14.7595 2.05287 14.6323 2.00019 14.4997 2.00018H9.99982ZM6.99987 11.5C6.86727 11.5 6.74009 11.579 6.64632 11.7197C6.55256 11.8603 6.49988 12.0511 6.49988 12.25C6.49988 12.4489 6.55256 12.6397 6.64632 12.7803C6.74009 12.921 6.86727 13 6.99987 13C7.13248 13 7.25965 12.921 7.35342 12.7803C7.44718 12.6397 7.49986 12.4489 7.49986 12.25C7.49986 12.0511 7.44718 11.8603 7.35342 11.7197C7.25965 11.579 7.13248 11.5 6.99987 11.5ZM10.4998 14C10.3672 14 10.24 14.0527 10.1463 14.1464C10.0525 14.2402 9.99983 14.3673 9.99982 14.4999V21.4998C9.99983 21.6324 10.0525 21.7596 10.1463 21.8534C10.24 21.9471 10.3672 21.9998 10.4998 21.9998H18.4997C18.6323 21.9998 18.7594 21.9471 18.8532 21.8534C18.947 21.7596 18.9996 21.6324 18.9997 21.4998V14.4999C18.9996 14.3673 18.947 14.2402 18.8532 14.1464C18.7594 14.0527 18.6323 14 18.4997 14H10.4998ZM10.9998 14.9999H17.9997V20.9998H10.9998V14.9999ZM13.4998 15.9999C13.4335 15.999 13.3677 16.0112 13.3062 16.0359C13.2448 16.0606 13.1888 16.0973 13.1416 16.1438C13.0944 16.1904 13.057 16.2458 13.0314 16.3069C13.0058 16.368 12.9926 16.4337 12.9926 16.4999C12.9926 16.5662 13.0058 16.6318 13.0314 16.6929C13.057 16.754 13.0944 16.8095 13.1416 16.856C13.1888 16.9025 13.2448 16.9392 13.3062 16.9639C13.3677 16.9886 13.4335 17.0008 13.4998 16.9999H15.4997C15.566 17.0008 15.6318 16.9886 15.6932 16.9639C15.7547 16.9392 15.8107 16.9025 15.8579 16.856C15.905 16.8095 15.9425 16.754 15.9681 16.6929C15.9937 16.6318 16.0068 16.5662 16.0068 16.4999C16.0068 16.4337 15.9937 16.368 15.9681 16.3069C15.9425 16.2458 15.905 16.1904 15.8579 16.1438C15.8107 16.0973 15.7547 16.0606 15.6932 16.0359C15.6318 16.0112 15.566 15.999 15.4997 15.9999H13.4998Z" fill="black"/>
</svg>
