<svg width="162" height="24" viewBox="0 0 162 24" fill="none" xmlns="http://www.w3.org/2000/svg">
<path d="M22.3999 5.54963C21.6343 5.88963 20.8119 6.11843 19.9487 6.22163C20.8303 5.69363 21.5063 4.85763 21.8247 3.86083C21.0007 4.34963 20.0871 4.70483 19.1143 4.89683C18.3359 4.06723 17.2271 3.54883 15.9999 3.54883C13.6431 3.54883 11.7327 5.46003 11.7327 7.81603C11.7327 8.15043 11.7711 8.47683 11.8431 8.78803C8.29672 8.61043 5.15272 6.91123 3.04712 4.32883C2.68072 4.95923 2.47032 5.69203 2.47032 6.47523C2.47032 7.95523 3.22312 9.26163 4.36792 10.0264C3.66872 10.004 3.01032 9.81203 2.43512 9.49283C2.43512 9.51123 2.43512 9.52803 2.43512 9.54643C2.43512 11.6144 3.90552 13.3392 5.85832 13.7304C5.50072 13.828 5.12312 13.88 4.73352 13.88C4.45912 13.88 4.19112 13.8528 3.93112 13.804C4.47432 15.4992 6.05032 16.7336 7.91752 16.768C6.45752 17.9128 4.61752 18.5952 2.61752 18.5952C2.27352 18.5952 1.93352 18.5752 1.59912 18.5352C3.48792 19.7456 5.73032 20.452 8.14072 20.452C15.9903 20.452 20.2815 13.9496 20.2815 8.31043C20.2815 8.12563 20.2775 7.94163 20.2695 7.75843C21.1039 7.15603 21.8279 6.40483 22.3999 5.54963Z" fill="#333333"/>
<path d="M76.9983 2.3999C73.9111 2.3999 71.3999 4.91347 71.3999 8.00146V16.0015C71.3999 19.0887 73.9135 21.5999 77.0015 21.5999H85.0015C88.0887 21.5999 90.5999 19.0863 90.5999 15.9983V7.99834C90.5999 4.91114 88.0863 2.3999 84.9983 2.3999H76.9983ZM86.5999 5.5999C87.0415 5.5999 87.3999 5.9583 87.3999 6.3999C87.3999 6.8415 87.0415 7.1999 86.5999 7.1999C86.1583 7.1999 85.7999 6.8415 85.7999 6.3999C85.7999 5.9583 86.1583 5.5999 86.5999 5.5999ZM80.9999 7.1999C83.6471 7.1999 85.7999 9.3527 85.7999 11.9999C85.7999 14.6471 83.6471 16.7999 80.9999 16.7999C78.3527 16.7999 76.1999 14.6471 76.1999 11.9999C76.1999 9.3527 78.3527 7.1999 80.9999 7.1999ZM80.9999 8.7999C80.1512 8.7999 79.3373 9.13704 78.7372 9.73716C78.137 10.3373 77.7999 11.1512 77.7999 11.9999C77.7999 12.8486 78.137 13.6625 78.7372 14.2626C79.3373 14.8628 80.1512 15.1999 80.9999 15.1999C81.8486 15.1999 82.6625 14.8628 83.2626 14.2626C83.8628 13.6625 84.1999 12.8486 84.1999 11.9999C84.1999 11.1512 83.8628 10.3373 83.2626 9.73716C82.6625 9.13704 81.8486 8.7999 80.9999 8.7999Z" fill="#333333"/>
<path d="M150 3.19995C146.651 3.19995 142.305 4.03901 142.305 4.03901L142.294 4.05151C140.769 4.29544 139.6 5.60605 139.6 7.19995V12V12.0015V16.8V16.8015C139.602 17.5627 139.874 18.2985 140.37 18.8767C140.865 19.4549 141.55 19.8376 142.302 19.9562L142.305 19.9609C142.305 19.9609 146.651 20.8015 150 20.8015C153.349 20.8015 157.695 19.9609 157.695 19.9609L157.697 19.9593C158.45 19.841 159.136 19.458 159.631 18.8791C160.127 18.3002 160.399 17.5635 160.4 16.8015V16.8V12.0015V12V7.19995C160.399 6.43845 160.126 5.70231 159.631 5.1238C159.136 4.54528 158.451 4.16231 157.699 4.0437L157.695 4.03901C157.695 4.03901 153.349 3.19995 150 3.19995ZM147.6 8.3187L154 12L147.6 15.6812V8.3187Z" fill="#333333"/>
</svg>
