<svg width="21" height="15" viewBox="0 0 21 15" fill="none" xmlns="http://www.w3.org/2000/svg">
<path d="M1.2 0C0.5408 0 0 0.5408 0 1.2V5.4H0.3C1.29767 5.4 2.1 6.20233 2.1 7.2C2.1 8.19767 1.29767 9 0.3 9H0V13.2C0 13.8592 0.5408 14.4 1.2 14.4H19.8C20.4592 14.4 21 13.8592 21 13.2V9H20.7C19.7023 9 18.9 8.19767 18.9 7.2C18.9 6.20233 19.7023 5.4 20.7 5.4H21V1.2C21 0.5408 20.4592 0 19.8 0H1.2ZM1.2 0.6H5.7C5.7 0.679565 5.73161 0.755871 5.78787 0.812132C5.84413 0.868393 5.92044 0.9 6 0.9C6.07957 0.9 6.15587 0.868393 6.21213 0.812132C6.26839 0.755871 6.3 0.679565 6.3 0.6H19.8C20.135 0.6 20.4 0.865 20.4 1.2V4.86094C19.2254 5.0154 18.3 5.98436 18.3 7.2C18.3 8.41564 19.2254 9.3846 20.4 9.53906V13.2C20.4 13.535 20.135 13.8 19.8 13.8H6.3C6.3 13.7204 6.26839 13.6441 6.21213 13.5879C6.15587 13.5316 6.07957 13.5 6 13.5C5.92044 13.5 5.84413 13.5316 5.78787 13.5879C5.73161 13.6441 5.7 13.7204 5.7 13.8H1.2C0.865 13.8 0.6 13.535 0.6 13.2V9.53906C1.77462 9.3846 2.7 8.41564 2.7 7.2C2.7 5.98436 1.77462 5.0154 0.6 4.86094V1.2C0.6 0.865 0.865 0.6 1.2 0.6ZM6 1.5C5.92044 1.5 5.84413 1.53161 5.78787 1.58787C5.73161 1.64413 5.7 1.72044 5.7 1.8C5.7 1.87957 5.73161 1.95587 5.78787 2.01213C5.84413 2.06839 5.92044 2.1 6 2.1C6.07957 2.1 6.15587 2.06839 6.21213 2.01213C6.26839 1.95587 6.3 1.87957 6.3 1.8C6.3 1.72044 6.26839 1.64413 6.21213 1.58787C6.15587 1.53161 6.07957 1.5 6 1.5ZM6 2.7C5.92044 2.7 5.84413 2.73161 5.78787 2.78787C5.73161 2.84413 5.7 2.92044 5.7 3C5.7 3.07957 5.73161 3.15587 5.78787 3.21213C5.84413 3.26839 5.92044 3.3 6 3.3C6.07957 3.3 6.15587 3.26839 6.21213 3.21213C6.26839 3.15587 6.3 3.07957 6.3 3C6.3 2.92044 6.26839 2.84413 6.21213 2.78787C6.15587 2.73161 6.07957 2.7 6 2.7ZM10.2293 3.49336C9.3356 3.49336 8.7 4.2086 8.7 5.2166C8.7 6.2297 9.3356 6.94453 10.2293 6.94453C11.123 6.94453 11.7539 6.2294 11.7539 5.2166C11.7539 4.2035 11.123 3.49336 10.2293 3.49336ZM14.485 3.61758L11.9725 7.04824L9.23613 10.7824H10.1496L12.6076 7.4209L15.3885 3.61758H14.485ZM6 3.9C5.92044 3.9 5.84413 3.93161 5.78787 3.98787C5.73161 4.04413 5.7 4.12044 5.7 4.2C5.7 4.27957 5.73161 4.35587 5.78787 4.41213C5.84413 4.46839 5.92044 4.5 6 4.5C6.07957 4.5 6.15587 4.46839 6.21213 4.41213C6.26839 4.35587 6.3 4.27957 6.3 4.2C6.3 4.12044 6.26839 4.04413 6.21213 3.98787C6.15587 3.93161 6.07957 3.9 6 3.9ZM10.2293 4.1291C10.6763 4.1291 10.9594 4.5461 10.9594 5.2166C10.9594 5.8721 10.6661 6.30879 10.2293 6.30879C9.7874 6.30879 9.49453 5.8769 9.49453 5.2166C9.49453 4.5563 9.7823 4.1291 10.2293 4.1291ZM6 5.1C5.92044 5.1 5.84413 5.13161 5.78787 5.18787C5.73161 5.24413 5.7 5.32044 5.7 5.4C5.7 5.47957 5.73161 5.55587 5.78787 5.61213C5.84413 5.66839 5.92044 5.7 6 5.7C6.07957 5.7 6.15587 5.66839 6.21213 5.61213C6.26839 5.55587 6.3 5.47957 6.3 5.4C6.3 5.32044 6.26839 5.24413 6.21213 5.18787C6.15587 5.13161 6.07957 5.1 6 5.1ZM6 6.3C5.92044 6.3 5.84413 6.33161 5.78787 6.38787C5.73161 6.44413 5.7 6.52044 5.7 6.6C5.7 6.67957 5.73161 6.75587 5.78787 6.81213C5.84413 6.86839 5.92044 6.9 6 6.9C6.07957 6.9 6.15587 6.86839 6.21213 6.81213C6.26839 6.75587 6.3 6.67957 6.3 6.6C6.3 6.52044 6.26839 6.44413 6.21213 6.38787C6.15587 6.33161 6.07957 6.3 6 6.3ZM14.376 7.45547C13.4823 7.45547 12.8461 8.17071 12.8461 9.17871C12.8461 10.1918 13.4823 10.9066 14.376 10.9066C15.2697 10.9066 15.9 10.1915 15.9 9.17871C15.9 8.16561 15.2697 7.45547 14.376 7.45547ZM6 7.5C5.92044 7.5 5.84413 7.53161 5.78787 7.58787C5.73161 7.64413 5.7 7.72044 5.7 7.8C5.7 7.87957 5.73161 7.95587 5.78787 8.01213C5.84413 8.06839 5.92044 8.1 6 8.1C6.07957 8.1 6.15587 8.06839 6.21213 8.01213C6.26839 7.95587 6.3 7.87957 6.3 7.8C6.3 7.72044 6.26839 7.64413 6.21213 7.58787C6.15587 7.53161 6.07957 7.5 6 7.5ZM14.376 8.09121C14.823 8.09121 15.1055 8.50821 15.1055 9.17871C15.1055 9.83421 14.8128 10.2709 14.376 10.2709C13.9341 10.2709 13.6406 9.83901 13.6406 9.17871C13.6406 8.51841 13.929 8.09121 14.376 8.09121ZM6 8.7C5.92044 8.7 5.84413 8.73161 5.78787 8.78787C5.73161 8.84413 5.7 8.92043 5.7 9C5.7 9.07957 5.73161 9.15587 5.78787 9.21213C5.84413 9.26839 5.92044 9.3 6 9.3C6.07957 9.3 6.15587 9.26839 6.21213 9.21213C6.26839 9.15587 6.3 9.07957 6.3 9C6.3 8.92043 6.26839 8.84413 6.21213 8.78787C6.15587 8.73161 6.07957 8.7 6 8.7ZM6 9.9C5.92044 9.9 5.84413 9.93161 5.78787 9.98787C5.73161 10.0441 5.7 10.1204 5.7 10.2C5.7 10.2796 5.73161 10.3559 5.78787 10.4121C5.84413 10.4684 5.92044 10.5 6 10.5C6.07957 10.5 6.15587 10.4684 6.21213 10.4121C6.26839 10.3559 6.3 10.2796 6.3 10.2C6.3 10.1204 6.26839 10.0441 6.21213 9.98787C6.15587 9.93161 6.07957 9.9 6 9.9ZM6 11.1C5.92044 11.1 5.84413 11.1316 5.78787 11.1879C5.73161 11.2441 5.7 11.3204 5.7 11.4C5.7 11.4796 5.73161 11.5559 5.78787 11.6121C5.84413 11.6684 5.92044 11.7 6 11.7C6.07957 11.7 6.15587 11.6684 6.21213 11.6121C6.26839 11.5559 6.3 11.4796 6.3 11.4C6.3 11.3204 6.26839 11.2441 6.21213 11.1879C6.15587 11.1316 6.07957 11.1 6 11.1ZM6 12.3C5.92044 12.3 5.84413 12.3316 5.78787 12.3879C5.73161 12.4441 5.7 12.5204 5.7 12.6C5.7 12.6796 5.73161 12.7559 5.78787 12.8121C5.84413 12.8684 5.92044 12.9 6 12.9C6.07957 12.9 6.15587 12.8684 6.21213 12.8121C6.26839 12.7559 6.3 12.6796 6.3 12.6C6.3 12.5204 6.26839 12.4441 6.21213 12.3879C6.15587 12.3316 6.07957 12.3 6 12.3Z" fill="black"/>
</svg>
