<svg width="46" height="44" viewBox="0 0 46 44" fill="none" xmlns="http://www.w3.org/2000/svg">
<path d="M23 0C10.3766 0 0 8.88221 0 19.9908C0 26.4378 3.56254 32.1145 8.95707 35.7519C8.94864 35.9681 8.9652 36.3214 8.68279 37.3681C8.33298 38.6649 7.62619 40.4851 6.18884 42.5245C6.0907 42.6639 6.03263 42.8275 6.02095 42.9975C6.00926 43.1675 6.04441 43.3375 6.12257 43.489C6.20072 43.6405 6.3189 43.7676 6.46425 43.8566C6.60961 43.9456 6.77658 43.9931 6.94702 43.9939C13.1432 44.0208 16.7297 39.9566 17.2872 39.3018C19.1216 39.7102 21.0224 39.9816 23 39.9816C35.6225 39.9816 46 31.0995 46 19.9908C46 8.88215 35.6225 0 23 0ZM23 1.86508C34.7521 1.86508 44.1349 10.0491 44.1349 19.9908C44.1349 29.9325 34.7521 38.1165 23 38.1165C20.9919 38.1165 19.0514 37.8767 17.2128 37.4289C17.0405 37.3867 16.8598 37.3946 16.6919 37.4515C16.5239 37.5084 16.3757 37.612 16.2646 37.7502C16.2646 37.7502 13.3654 41.04 8.74353 41.8173C9.57911 40.3178 10.196 38.9186 10.4832 37.854C10.8835 36.3703 10.8888 35.364 10.8888 35.364C10.8888 35.2068 10.8491 35.0523 10.7734 34.9146C10.6977 34.7769 10.5885 34.6606 10.4558 34.5764C5.21283 31.2528 1.86508 25.9523 1.86508 19.9908C1.86508 10.049 11.2469 1.86508 23 1.86508ZM11.9663 12.9693C11.8334 12.9675 11.7014 12.992 11.578 13.0416C11.4547 13.0911 11.3424 13.1647 11.2478 13.2581C11.1531 13.3514 11.0779 13.4626 11.0266 13.5852C10.9753 13.7079 10.9489 13.8395 10.9489 13.9724C10.9489 14.1053 10.9753 14.2369 11.0266 14.3596C11.0779 14.4822 11.1531 14.5934 11.2478 14.6867C11.3424 14.7801 11.4547 14.8537 11.578 14.9032C11.7014 14.9528 11.8334 14.9773 11.9663 14.9755H34.0337C34.1666 14.9773 34.2986 14.9528 34.422 14.9032C34.5453 14.8537 34.6576 14.7801 34.7522 14.6867C34.8469 14.5934 34.9221 14.4822 34.9734 14.3596C35.0247 14.2369 35.0511 14.1053 35.0511 13.9724C35.0511 13.8395 35.0247 13.7079 34.9734 13.5852C34.9221 13.4626 34.8469 13.3514 34.7522 13.2581C34.6576 13.1647 34.5453 13.0911 34.422 13.0416C34.2986 12.992 34.1666 12.9675 34.0337 12.9693H11.9663ZM7.954 18.9877C7.82108 18.9859 7.68912 19.0104 7.56577 19.06C7.44243 19.1095 7.33016 19.1831 7.2355 19.2765C7.14085 19.3698 7.06568 19.481 7.01438 19.6036C6.96307 19.7263 6.93665 19.8579 6.93665 19.9908C6.93665 20.1237 6.96307 20.2553 7.01438 20.378C7.06568 20.5006 7.14085 20.6118 7.2355 20.7051C7.33016 20.7985 7.44243 20.8721 7.56577 20.9216C7.68912 20.9712 7.82108 20.9957 7.954 20.9939H25.0061C25.1391 20.9957 25.271 20.9712 25.3944 20.9216C25.5177 20.8721 25.63 20.7985 25.7246 20.7051C25.8193 20.6118 25.8945 20.5006 25.9458 20.378C25.9971 20.2553 26.0235 20.1237 26.0235 19.9908C26.0235 19.8579 25.9971 19.7263 25.9458 19.6036C25.8945 19.481 25.8193 19.3698 25.7246 19.2765C25.63 19.1831 25.5177 19.1095 25.3944 19.06C25.271 19.0104 25.1391 18.9859 25.0061 18.9877H7.954ZM31.0245 18.9877C30.8916 18.9859 30.7596 19.0104 30.6363 19.06C30.513 19.1095 30.4007 19.1831 30.306 19.2765C30.2114 19.3698 30.1362 19.481 30.0849 19.6036C30.0336 19.7263 30.0072 19.8579 30.0072 19.9908C30.0072 20.1237 30.0336 20.2553 30.0849 20.378C30.1362 20.5006 30.2114 20.6118 30.306 20.7051C30.4007 20.7985 30.513 20.8721 30.6363 20.9216C30.7596 20.9712 30.8916 20.9957 31.0245 20.9939H38.046C38.1789 20.9957 38.3109 20.9712 38.4342 20.9216C38.5576 20.8721 38.6698 20.7985 38.7645 20.7051C38.8592 20.6118 38.9343 20.5006 38.9856 20.378C39.0369 20.2553 39.0634 20.1237 39.0634 19.9908C39.0634 19.8579 39.0369 19.7263 38.9856 19.6036C38.9343 19.481 38.8592 19.3698 38.7645 19.2765C38.6698 19.1831 38.5576 19.1095 38.4342 19.06C38.3109 19.0104 38.1789 18.9859 38.046 18.9877H31.0245ZM11.9663 25.0061C11.8334 25.0043 11.7014 25.0288 11.578 25.0784C11.4547 25.1279 11.3424 25.2015 11.2478 25.2949C11.1531 25.3882 11.0779 25.4994 11.0266 25.622C10.9753 25.7447 10.9489 25.8763 10.9489 26.0092C10.9489 26.1421 10.9753 26.2737 11.0266 26.3964C11.0779 26.519 11.1531 26.6302 11.2478 26.7235C11.3424 26.8169 11.4547 26.8905 11.578 26.94C11.7014 26.9896 11.8334 27.0141 11.9663 27.0123H34.0337C34.1666 27.0141 34.2986 26.9896 34.422 26.94C34.5453 26.8905 34.6576 26.8169 34.7522 26.7235C34.8469 26.6302 34.9221 26.519 34.9734 26.3964C35.0247 26.2737 35.0511 26.1421 35.0511 26.0092C35.0511 25.8763 35.0247 25.7447 34.9734 25.622C34.9221 25.4994 34.8469 25.3882 34.7522 25.2949C34.6576 25.2015 34.5453 25.1279 34.422 25.0784C34.2986 25.0288 34.1666 25.0043 34.0337 25.0061H11.9663Z" fill="#DD8560"/>
</svg>
