<svg width="142" height="24" viewBox="0 0 142 24" fill="none" xmlns="http://www.w3.org/2000/svg">
<path d="M22.4 5.5496C21.6344 5.8896 20.812 6.1184 19.9488 6.2216C20.8304 5.6936 21.5064 4.8576 21.8248 3.8608C21.0008 4.3496 20.0872 4.7048 19.1144 4.8968C18.336 4.0672 17.2272 3.5488 16 3.5488C13.6432 3.5488 11.7328 5.46 11.7328 7.816C11.7328 8.1504 11.7712 8.4768 11.8432 8.788C8.29678 8.6104 5.15278 6.9112 3.04718 4.3288C2.68078 4.9592 2.47038 5.692 2.47038 6.4752C2.47038 7.9552 3.22318 9.2616 4.36798 10.0264C3.66878 10.004 3.01038 9.812 2.43518 9.4928C2.43518 9.5112 2.43518 9.528 2.43518 9.5464C2.43518 11.6144 3.90558 13.3392 5.85838 13.7304C5.50078 13.828 5.12318 13.88 4.73358 13.88C4.45918 13.88 4.19118 13.8528 3.93118 13.804C4.47438 15.4992 6.05038 16.7336 7.91758 16.768C6.45758 17.9128 4.61758 18.5952 2.61758 18.5952C2.27358 18.5952 1.93358 18.5752 1.59918 18.5352C3.48798 19.7456 5.73038 20.452 8.14078 20.452C15.9904 20.452 20.2816 13.9496 20.2816 8.3104C20.2816 8.1256 20.2776 7.9416 20.2696 7.7584C21.104 7.156 21.828 6.4048 22.4 5.5496Z" fill="#555555"/>
<path d="M66.9985 2.39999C63.9113 2.39999 61.4 4.91355 61.4 8.00155V16.0016C61.4 19.0888 63.9136 21.6 67.0016 21.6H75.0016C78.0888 21.6 80.6 19.0864 80.6 15.9984V7.99843C80.6 4.91123 78.0865 2.39999 74.9985 2.39999H66.9985ZM76.6 5.59999C77.0416 5.59999 77.4 5.95839 77.4 6.39999C77.4 6.84159 77.0416 7.19999 76.6 7.19999C76.1584 7.19999 75.8 6.84159 75.8 6.39999C75.8 5.95839 76.1584 5.59999 76.6 5.59999ZM71 7.19999C73.6472 7.19999 75.8 9.35279 75.8 12C75.8 14.6472 73.6472 16.8 71 16.8C68.3528 16.8 66.2 14.6472 66.2 12C66.2 9.35279 68.3528 7.19999 71 7.19999ZM71 8.79999C70.1513 8.79999 69.3374 9.13713 68.7373 9.73725C68.1372 10.3374 67.8 11.1513 67.8 12C67.8 12.8487 68.1372 13.6626 68.7373 14.2627C69.3374 14.8628 70.1513 15.2 71 15.2C71.8487 15.2 72.6626 14.8628 73.2628 14.2627C73.8629 13.6626 74.2 12.8487 74.2 12C74.2 11.1513 73.8629 10.3374 73.2628 9.73725C72.6626 9.13713 71.8487 8.79999 71 8.79999Z" fill="#555555"/>
<path d="M130 3.20001C126.651 3.20001 122.305 4.03907 122.305 4.03907L122.294 4.05157C120.769 4.2955 119.6 5.60611 119.6 7.20001V12V12.0016V16.8V16.8016C119.601 17.5628 119.874 18.2986 120.369 18.8768C120.865 19.4549 121.55 19.8377 122.302 19.9563L122.305 19.9609C122.305 19.9609 126.651 20.8016 130 20.8016C133.349 20.8016 137.695 19.9609 137.695 19.9609L137.697 19.9594C138.45 19.8411 139.135 19.458 139.631 18.8791C140.126 18.3003 140.399 17.5636 140.4 16.8016V16.8V12.0016V12V7.20001C140.399 6.43851 140.126 5.70237 139.631 5.12385C139.136 4.54534 138.451 4.16237 137.698 4.04376L137.695 4.03907C137.695 4.03907 133.349 3.20001 130 3.20001ZM127.6 8.31876L134 12L127.6 15.6813V8.31876Z" fill="#555555"/>
</svg>
